<svg width="198" height="35" viewBox="0 0 198 35" fill="none" xmlns="http://www.w3.org/2000/svg">
<g id="Frame 1" clip-path="url(#clip0_2_709)">
<path id="Union" fill-rule="evenodd" clip-rule="evenodd" d="M27.7228 16.787L27.7529 34.7904H35.0876L35.0382 0.209581H29.1507L17.5419 20.2747L5.93309 0.209581H0V34.7904H7.33533V16.8656L15.4897 30.8922H19.5552L27.7228 16.787ZM5.17762 1.51946L17.5419 22.8903L5.17761 1.51946H1.30988V1.51946H5.17762ZM29.9062 1.51946L33.7302 1.51946L33.7758 33.4805L33.7302 1.51946H29.9062ZM6.02545 12.0062V33.4805L6.02543 12.0061L6.02545 12.0062ZM54.1789 35C58.4399 35 62.0832 33.7378 64.7447 30.9677C67.4212 28.182 68.5771 24.2876 68.5771 19.7216V0.209581H61.1999V19.6377C61.1999 22.8773 60.4438 24.8234 59.4061 25.9676C58.4081 27.0679 56.8216 27.7904 54.2209 27.7904C51.572 27.7904 49.9885 27.0644 48.9937 25.9676C47.956 24.8234 47.1999 22.8773 47.1999 19.6377V0.209581H39.8227V19.7216C39.8227 24.2876 40.9786 28.182 43.6551 30.9677C46.3109 33.732 49.9079 35 54.1789 35ZM80.6058 34.7904V25.1497H88.0377L94.9119 34.7904H110.858V0.209581H103.481V34.4435L100.786 30.6528C98.9486 28.0681 97.1534 25.547 95.334 23.0241C97.4341 21.7829 98.9891 19.9355 99.9484 17.5582L99.9546 17.5426C101.067 14.7344 101.099 11.8863 100.341 9.10342C99.6846 6.64881 98.2932 4.5932 96.2213 3.06659C93.4325 1.01441 90.2974 0.346735 87.2894 0.252686L87.2678 0.252188C84.4973 0.1885 81.724 0.196478 78.9901 0.204342L78.9818 0.204366C78.0729 0.20698 77.1685 0.209581 76.2674 0.209581C76.0581 0.209581 75.8756 0.231312 75.7489 0.251496H73.3124V7.37724H76.5609C80.122 7.37724 83.7069 7.37727 87.2476 7.41883C88.8655 7.45476 90.2448 7.79272 91.4541 8.55693C92.3099 9.11098 92.819 9.74539 93.1092 10.5852C93.4762 11.6918 93.5568 12.7865 93.352 13.8693L93.3475 13.8933L93.3433 13.9177C93.0867 15.4287 92.4217 16.4093 91.215 17.1209C90.0517 17.787 88.6991 18.0659 87.1238 18.0657L87.0926 18.0661C84.7643 18.0938 82.4429 18.0845 80.1097 18.0752H80.1066L80.1054 18.0752C78.9403 18.0705 77.7723 18.0659 76.6028 18.0659C76.3764 18.0659 76.1595 18.0857 76.0565 18.0952L76.047 18.0961L76.0298 18.0976C76.0081 18.0996 75.9897 18.1012 75.974 18.1026C75.9441 18.1052 75.9242 18.1068 75.9107 18.1078H73.3124V34.7904H80.6058ZM78.9855 1.51424C78.0769 1.51686 77.1706 1.51946 76.2674 1.51946C77.1706 1.51946 78.077 1.51685 78.9855 1.51424ZM123.22 0.209581H115.843V34.7904H140.362H164.631V27.6228H147.739V0.209581H140.362V27.6228H123.22V0.209581ZM117.152 1.51946H121.91V28.9326H140.362L121.91 28.9326V1.51946L117.152 1.51946ZM146.429 28.9326H163.321V33.4805L163.321 28.9326L146.429 28.9326ZM189.033 32.7343C191.717 31.2214 193.904 29.1429 195.491 26.4645L195.509 26.4332C197.049 23.7514 197.827 20.7408 197.827 17.5C197.827 14.2592 197.049 11.2487 195.51 8.56695L195.505 8.5589L195.491 8.5357C193.904 5.85711 191.717 3.7786 189.033 2.26569C186.288 0.7184 183.235 0 179.95 0C176.665 0 173.612 0.7184 170.867 2.26569C168.172 3.78507 165.983 5.91385 164.441 8.59372C162.852 11.2816 162.073 14.2573 162.073 17.5C162.073 20.7427 162.852 23.7183 164.441 26.4062C165.994 29.1039 168.191 31.1837 170.867 32.6924C173.59 34.2268 176.636 35 179.95 35C183.235 35 186.288 34.2816 189.033 32.7343ZM185.31 8.53808C186.921 9.46375 188.161 10.6555 189.038 12.1822C189.931 13.7374 190.408 15.5059 190.408 17.5C190.408 19.4855 189.935 21.2135 189.038 22.7759C188.149 24.3231 186.899 25.5489 185.31 26.4619C183.785 27.3381 182.024 27.7904 179.95 27.7904C177.876 27.7904 176.115 27.3381 174.59 26.4618L174.57 26.4502C172.951 25.5399 171.707 24.3198 170.82 22.7759C169.923 21.2135 169.45 19.4855 169.45 17.5C169.45 15.5059 169.927 13.7375 170.82 12.1822C171.695 10.659 172.929 9.47257 174.57 8.5499L174.59 8.53804C176.115 7.66192 177.876 7.20958 179.95 7.20958C182.024 7.20958 183.785 7.66192 185.31 8.53808ZM45.89 19.6377V1.51946H41.1325L45.89 1.51946L45.89 19.6377Z" fill="#00D061"/>
</g>
<defs>
<clipPath id="clip0_2_709">
<rect width="198" height="35" fill="white"/>
</clipPath>
</defs>
</svg>
