<svg width="178" height="40" viewBox="0 0 178 40" fill="none" xmlns="http://www.w3.org/2000/svg">
<path d="M42.8356 9.3837H46.9452V29.1782H42.8356V9.3837Z" fill="#B0B0B0"/>
<path d="M49.2466 22.3973C49.2466 20.9731 49.6695 19.5811 50.4615 18.3975C51.2536 17.2139 52.3792 16.2922 53.6958 15.7491C55.0123 15.206 56.4604 15.066 57.8566 15.3468C59.2528 15.6277 60.5341 16.3167 61.5383 17.3266C62.5424 18.3365 63.2241 19.6218 63.4969 21.0196C63.7698 22.4174 63.6215 23.8647 63.0708 25.178C62.5202 26.4914 61.592 27.6118 60.4039 28.3971C59.2159 29.1823 57.8214 29.5972 56.3973 29.5891C55.4527 29.5964 54.5162 29.4152 53.6426 29.0558C52.769 28.6965 51.9759 28.1664 51.3099 27.4965C50.6439 26.8267 50.1183 26.0306 49.764 25.155C49.4097 24.2794 49.2338 23.3418 49.2466 22.3973ZM59.5479 22.3973C59.5318 21.7833 59.335 21.1877 58.9821 20.685C58.6292 20.1823 58.136 19.7948 57.564 19.571C56.9921 19.3472 56.3669 19.2969 55.7665 19.4266C55.1662 19.5562 54.6174 19.8599 54.1888 20.2998C53.7601 20.7397 53.4707 21.2962 53.3567 21.8998C53.2427 22.5033 53.3092 23.127 53.5478 23.6929C53.7864 24.2588 54.1866 24.7419 54.6983 25.0816C55.21 25.4213 55.8105 25.6025 56.4247 25.6028C56.8428 25.6109 57.2582 25.5327 57.6448 25.3731C58.0313 25.2134 58.3808 24.9757 58.6714 24.6749C58.9619 24.3741 59.1873 24.0165 59.3334 23.6246C59.4795 23.2327 59.5432 22.8149 59.5205 22.3973H59.5479Z" fill="#B0B0B0"/>
<path d="M79.8082 15.6167V28.5071C79.8082 33.0551 76.2466 34.9866 72.6439 34.9866C71.3731 35.0909 70.0984 34.8384 68.9634 34.2576C67.8283 33.6767 66.8779 32.7906 66.2192 31.6989L69.685 29.6989C69.9658 30.2652 70.4126 30.7324 70.9656 31.0383C71.5187 31.3442 72.1519 31.4743 72.7808 31.4112C73.1815 31.4606 73.5881 31.4208 73.9716 31.2947C74.355 31.1687 74.7059 30.9594 74.9991 30.6819C75.2923 30.4044 75.5205 30.0656 75.6675 29.6897C75.8145 29.3137 75.8766 28.9099 75.8493 28.5071V27.2606C75.3711 27.8404 74.7643 28.3008 74.0771 28.6051C73.3899 28.9095 72.6412 29.0495 71.8904 29.014C70.0739 29.014 68.3317 28.2924 67.0472 27.0079C65.7627 25.7234 65.0411 23.9812 65.0411 22.1647C65.0411 20.3481 65.7627 18.606 67.0472 17.3215C68.3317 16.037 70.0739 15.3154 71.8904 15.3154C72.6412 15.2799 73.3899 15.4198 74.0771 15.7242C74.7643 16.0286 75.3711 16.489 75.8493 17.0688V15.6989L79.8082 15.6167ZM75.8493 22.1236C75.8767 21.4682 75.7073 20.8196 75.3631 20.2612C75.0188 19.7029 74.5154 19.2602 73.9176 18.9903C73.3198 18.7203 72.6549 18.6353 72.0084 18.7463C71.3619 18.8573 70.7634 19.1591 70.2898 19.6129C69.8162 20.0668 69.4892 20.6519 69.3508 21.2931C69.2125 21.9343 69.2691 22.6023 69.5134 23.211C69.7577 23.8198 70.1785 24.3416 70.7217 24.7092C71.2649 25.0769 71.9057 25.2737 72.5617 25.2743C72.9897 25.3051 73.4194 25.2458 73.8231 25.1002C74.2268 24.9547 74.5955 24.726 74.9053 24.4291C75.2151 24.1322 75.4592 23.7736 75.6218 23.3765C75.7844 22.9793 75.8619 22.5525 75.8493 22.1236Z" fill="#B0B0B0"/>
<path d="M82.1233 22.3974C82.1233 20.9744 82.5454 19.5834 83.3363 18.4004C84.1271 17.2174 85.2511 16.2957 86.5661 15.7517C87.881 15.2078 89.3277 15.0662 90.7232 15.3448C92.1186 15.6234 93.4 16.3097 94.4053 17.3169C95.4105 18.3241 96.0944 19.6068 96.3703 21.0028C96.6463 22.3987 96.5019 23.8452 95.9555 25.1591C95.409 26.473 94.4851 27.5952 93.3006 28.3838C92.1162 29.1724 90.7243 29.5919 89.3014 29.5892C88.355 29.5984 87.4164 29.4185 86.5404 29.0602C85.6645 28.7018 84.8689 28.1722 84.2004 27.5024C83.5318 26.8325 83.0037 26.0359 82.647 25.1593C82.2904 24.2827 82.1123 23.3437 82.1233 22.3974ZM92.4247 22.3974C92.4085 21.7828 92.2113 21.1867 91.8578 20.6838C91.5043 20.1808 91.0103 19.7933 90.4375 19.5699C89.8648 19.3465 89.2389 19.297 88.6382 19.4278C88.0375 19.5585 87.4887 19.8636 87.0607 20.3049C86.6326 20.7461 86.3443 21.3039 86.2319 21.9083C86.1194 22.5127 86.1878 23.1368 86.4285 23.7025C86.6692 24.2682 87.0715 24.7503 87.585 25.0883C88.0985 25.4264 88.7003 25.6054 89.3151 25.6029C89.7332 25.611 90.1486 25.5328 90.5352 25.3732C90.9217 25.2135 91.2712 24.9759 91.5618 24.675C91.8523 24.3742 92.0777 24.0166 92.2238 23.6247C92.3699 23.2328 92.4337 22.815 92.411 22.3974H92.4247Z" fill="#B0B0B0"/>
<path d="M98.3836 11.9866C98.3836 11.5043 98.5266 11.0329 98.7945 10.6319C99.0624 10.2309 99.4433 9.9184 99.8888 9.73385C100.334 9.5493 100.825 9.50101 101.298 9.59509C101.771 9.68918 102.205 9.92141 102.546 10.2624C102.887 10.6034 103.119 11.0379 103.213 11.5109C103.308 11.9839 103.259 12.4742 103.075 12.9197C102.89 13.3653 102.578 13.7461 102.177 14.014C101.776 14.2819 101.304 14.425 100.822 14.425C100.177 14.4178 99.5614 14.1586 99.1056 13.7029C98.6499 13.2472 98.3907 12.6311 98.3836 11.9866ZM98.7808 15.6167H102.89V29.1784H98.7808V15.6167Z" fill="#B0B0B0"/>
<path d="M120.479 22.3975C120.526 23.2994 120.393 24.2016 120.089 25.052C119.785 25.9024 119.316 26.6843 118.708 27.3527C118.101 28.0212 117.368 28.5629 116.55 28.9467C115.733 29.3306 114.847 29.5489 113.945 29.5893C113.18 29.6402 112.412 29.5176 111.701 29.2306C110.989 28.9436 110.352 28.4996 109.836 27.9318V34.6304H105.726V15.6167H109.836V16.8907C110.352 16.3245 110.99 15.8825 111.702 15.5979C112.414 15.3132 113.181 15.1932 113.945 15.2468C114.844 15.2873 115.726 15.5044 116.54 15.8856C117.355 16.2669 118.087 16.8049 118.693 17.4689C119.3 18.1329 119.77 18.9099 120.077 19.7556C120.383 20.6012 120.52 21.499 120.479 22.3975ZM116.37 22.3975C116.354 21.7613 116.15 21.144 115.785 20.623C115.419 20.102 114.908 19.7005 114.315 19.4687C113.722 19.237 113.074 19.1854 112.452 19.3204C111.83 19.4554 111.262 19.771 110.819 20.2275C110.375 20.6841 110.077 21.2614 109.96 21.8871C109.843 22.5127 109.914 23.1589 110.163 23.7446C110.412 24.3303 110.828 24.8295 111.36 25.1796C111.891 25.5297 112.514 25.7151 113.151 25.7126C113.587 25.7311 114.022 25.6572 114.427 25.4959C114.832 25.3345 115.199 25.0893 115.503 24.7763C115.807 24.4632 116.041 24.0895 116.191 23.6796C116.34 23.2696 116.401 22.8327 116.37 22.3975Z" fill="#B0B0B0"/>
<path d="M132.986 25.1097C132.986 28.233 130.247 29.5618 127.342 29.5618C126.158 29.6684 124.969 29.4173 123.928 28.841C122.888 28.2647 122.045 27.3896 121.507 26.3289L125.041 24.3289C125.181 24.8177 125.485 25.2436 125.901 25.5353C126.318 25.8271 126.822 25.967 127.329 25.9316C128.301 25.9316 128.795 25.6302 128.795 25.0823C128.795 23.5891 122.123 24.3837 122.123 19.685C122.123 16.7261 124.616 15.2467 127.438 15.2467C128.511 15.1987 129.577 15.442 130.522 15.9509C131.468 16.4598 132.258 17.2153 132.808 18.1371L129.274 20.0001C129.118 19.6467 128.863 19.3461 128.539 19.1346C128.216 18.9231 127.838 18.8098 127.452 18.8083C126.74 18.8083 126.315 19.0823 126.315 19.5618C126.315 21.1234 132.986 20.096 132.986 25.1097Z" fill="#B0B0B0"/>
<path d="M147.877 15.6166V29.1783H143.767V27.9043C143.3 28.4682 142.707 28.9145 142.036 29.2072C141.365 29.4999 140.635 29.6307 139.904 29.5892C137.164 29.5892 134.822 27.6303 134.822 23.9728V15.6166H138.932V23.3564C138.899 23.6799 138.938 24.0067 139.044 24.314C139.15 24.6213 139.322 24.9019 139.547 25.1363C139.773 25.3708 140.046 25.5535 140.349 25.6719C140.652 25.7903 140.977 25.8416 141.301 25.8221C142.781 25.8221 143.822 24.9454 143.822 23.0824V15.6166H147.877Z" fill="#B0B0B0"/>
<path d="M171.164 20.8494V29.1782H167.055V21.2056C167.055 19.8357 166.411 18.9864 165.11 18.9864C163.808 18.9864 162.986 19.9316 162.986 21.5343V29.1782H158.877V21.2056C158.877 19.8357 158.233 18.9864 156.932 18.9864C155.63 18.9864 154.808 19.9316 154.808 21.5343V29.1782H150.699V15.6165H154.808V16.8631C155.234 16.3123 155.79 15.8762 156.426 15.594C157.062 15.3118 157.758 15.1924 158.452 15.2466C159.147 15.2104 159.84 15.3555 160.462 15.6677C161.084 15.9799 161.614 16.4485 162 17.0275C162.451 16.4226 163.049 15.942 163.736 15.6306C164.424 15.3191 165.179 15.1871 165.932 15.2466C169.137 15.2466 171.164 17.4658 171.164 20.8494Z" fill="#B0B0B0"/>
<path d="M18.3562 5.82192V0H0V40H18.3562V34.1781C14.5959 34.1781 10.9897 32.6843 8.33075 30.0254C5.67184 27.3665 4.17808 23.7603 4.17808 20C4.17808 16.2397 5.67184 12.6335 8.33075 9.97458C10.9897 7.31568 14.5959 5.82192 18.3562 5.82192Z" fill="#B0B0B0"/>
<path d="M18.3562 5.82192V34.1781C22.1164 34.1781 25.7227 32.6843 28.3816 30.0254C31.0405 27.3665 32.5343 23.7603 32.5343 20C32.5343 16.2397 31.0405 12.6335 28.3816 9.97458C25.7227 7.31568 22.1164 5.82192 18.3562 5.82192Z" fill="#B0B0B0"/>
<path d="M174.616 15.5345C176.281 15.5345 177.63 14.1852 177.63 12.5208C177.63 10.8564 176.281 9.5071 174.616 9.5071C172.952 9.5071 171.603 10.8564 171.603 12.5208C171.603 14.1852 172.952 15.5345 174.616 15.5345Z" fill="#B0B0B0"/>
</svg>
