<svg width="176" height="40" viewBox="0 0 176 40" fill="none" xmlns="http://www.w3.org/2000/svg">
<path d="M50.7337 11.2696H55.1583V29.1597H50.7337V11.2696ZM56.9133 22.4048C56.9133 17.9802 59.6271 15.3402 63.8157 15.3402C68.0043 15.3402 70.7181 17.9802 70.7181 22.4048C70.7181 26.8294 68.0633 29.4841 63.8157 29.4841C59.5681 29.4841 56.9133 26.9031 56.9133 22.4048ZM66.2787 22.4048C66.2787 19.9713 65.3201 18.5407 63.8157 18.5407C62.3113 18.5407 61.3674 20.0155 61.3674 22.4048C61.3674 24.7941 62.2966 26.2394 63.8157 26.2394C65.3348 26.2394 66.2787 24.8826 66.2787 22.4195V22.4048ZM72.3847 30.0298H76.6323C76.8344 30.4789 77.1762 30.8507 77.6067 31.0899C78.0372 31.3291 78.5334 31.4228 79.0215 31.3572C80.7029 31.3572 81.5878 30.4428 81.5878 29.1154V26.6376H81.4993C81.1468 27.397 80.5748 28.0334 79.8571 28.4645C79.1394 28.8957 78.3089 29.1018 77.4729 29.0564C74.243 29.0564 72.1044 26.5934 72.1044 22.3605C72.1044 18.1277 74.1397 15.4582 77.5319 15.4582C78.3941 15.4244 79.2461 15.6549 79.9736 16.1188C80.7011 16.5828 81.2695 17.258 81.6025 18.0539V15.5909H86.0271V29.0122C86.0271 32.2421 83.1806 34.2479 78.9773 34.2479C75.0689 34.2479 72.6354 32.4928 72.3847 30.0446V30.0298ZM81.6025 22.39C81.6025 20.2367 80.6144 18.8799 79.051 18.8799C77.4877 18.8799 76.529 20.222 76.529 22.39C76.529 24.5581 77.4729 25.7822 79.051 25.7822C80.6291 25.7822 81.6025 24.5876 81.6025 22.4048V22.39ZM87.6937 22.39C87.6937 17.9655 90.4075 15.3255 94.5961 15.3255C98.7847 15.3255 101.513 17.9655 101.513 22.39C101.513 26.8146 98.8584 29.4694 94.5961 29.4694C90.3337 29.4694 87.6937 26.9031 87.6937 22.4048V22.39ZM97.0591 22.39C97.0591 19.9565 96.1004 18.5259 94.5961 18.5259C93.0917 18.5259 92.2216 20.0155 92.2216 22.4195C92.2216 24.8236 93.1507 26.2542 94.6551 26.2542C96.1594 26.2542 97.0591 24.8826 97.0591 22.4195V22.39ZM103.195 12.3757C103.183 11.929 103.304 11.4889 103.543 11.1112C103.782 10.7335 104.128 10.4352 104.536 10.2541C104.945 10.0731 105.398 10.0174 105.838 10.0942C106.278 10.171 106.686 10.3767 107.009 10.6854C107.332 10.994 107.556 11.3917 107.653 11.8279C107.75 12.2642 107.715 12.7194 107.553 13.1358C107.391 13.5522 107.109 13.9112 106.743 14.1671C106.376 14.423 105.942 14.5644 105.495 14.5733C105.199 14.5936 104.902 14.5525 104.622 14.4525C104.343 14.3525 104.087 14.1958 103.871 13.9922C103.655 13.7886 103.483 13.5425 103.367 13.2694C103.25 12.9963 103.192 12.7021 103.195 12.4052V12.3757ZM103.195 15.6204H107.619V29.1597H103.195V15.6204ZM123.68 22.39C123.68 26.8146 121.719 29.3366 118.356 29.3366C117.494 29.392 116.635 29.1812 115.897 28.7328C115.158 28.2844 114.575 27.6199 114.226 26.8294H114.138V33.4958H109.713V15.5909H114.138V18.0097H114.226C114.559 17.2061 115.131 16.5244 115.864 16.0573C116.598 15.5902 117.458 15.3604 118.327 15.3992C121.719 15.4582 123.739 17.995 123.739 22.4195L123.68 22.39ZM119.256 22.39C119.256 20.2367 118.268 18.8651 116.719 18.8651C115.17 18.8651 114.182 20.2515 114.167 22.39C114.153 24.5286 115.17 25.9002 116.719 25.9002C118.268 25.9002 119.256 24.5581 119.256 22.4195V22.39ZM131.276 15.3107C134.948 15.3107 137.175 17.051 137.279 19.8385H133.252C133.252 18.8799 132.456 18.2752 131.232 18.2752C130.008 18.2752 129.462 18.7471 129.462 19.4403C129.462 20.1335 129.949 20.3547 130.937 20.5612L133.768 21.1364C136.467 21.7116 137.618 22.803 137.618 24.8531C137.618 27.6553 135.066 29.4546 131.305 29.4546C127.544 29.4546 125.081 27.6553 124.89 24.8973H129.152C129.285 25.9002 130.081 26.4902 131.379 26.4902C132.677 26.4902 133.267 26.0624 133.267 25.3545C133.267 24.6466 132.854 24.4991 131.792 24.2779L129.241 23.7322C126.601 23.1865 125.214 21.7853 125.214 19.7205C125.244 17.0658 127.618 15.3402 131.276 15.3402V15.3107ZM152.381 29.1302H148.119V26.6081H148.03C147.796 27.4549 147.279 28.196 146.566 28.7085C145.852 29.2209 144.984 29.4738 144.107 29.4251C143.435 29.4633 142.762 29.3568 142.135 29.1128C141.507 28.8687 140.939 28.4928 140.47 28.0105C140 27.5281 139.639 26.9505 139.412 26.3168C139.184 25.683 139.096 25.0078 139.152 24.3369V15.5909H143.576V23.3192C143.576 24.9268 144.402 25.7822 145.774 25.7822C146.095 25.7829 146.414 25.7148 146.707 25.5825C147 25.4502 147.261 25.2567 147.474 25.0151C147.686 24.7735 147.844 24.4893 147.938 24.1815C148.031 23.8738 148.058 23.5496 148.016 23.2307V15.5909H152.44L152.381 29.1302ZM154.52 15.5909H158.797V18.2014H158.885C159.12 17.3659 159.625 16.6318 160.322 16.1141C161.018 15.5963 161.867 15.3242 162.735 15.3402C163.618 15.2695 164.495 15.5337 165.191 16.0803C165.888 16.6268 166.354 17.4157 166.496 18.2899H166.584C166.852 17.4064 167.406 16.637 168.159 16.103C168.912 15.5689 169.821 15.3006 170.743 15.3402C171.345 15.32 171.944 15.4266 172.502 15.6531C173.06 15.8796 173.564 16.2209 173.981 16.6549C174.398 17.0889 174.72 17.6058 174.924 18.1721C175.129 18.7384 175.212 19.3413 175.168 19.9418V29.1597H170.743V21.1217C170.743 19.6468 170.08 18.9684 168.841 18.9684C168.564 18.966 168.291 19.023 168.038 19.1353C167.786 19.2477 167.561 19.4129 167.378 19.6198C167.194 19.8267 167.058 20.0704 166.977 20.3346C166.896 20.5988 166.873 20.8772 166.909 21.1512V29.1597H162.705V21.0627C162.705 19.7058 162.042 18.9684 160.832 18.9684C160.553 18.9684 160.277 19.0278 160.022 19.1424C159.767 19.2571 159.539 19.4245 159.354 19.6335C159.169 19.8426 159.03 20.0886 158.946 20.3552C158.863 20.6219 158.837 20.9033 158.871 21.1807V29.1597H154.446L154.52 15.5909Z" fill="#B0B0B0"/>
<path d="M38.3596 12.0809C37.609 10.3647 36.6156 8.76527 35.4098 7.33181C33.6274 5.14951 31.403 3.36943 28.8831 2.10874C26.3631 0.848045 23.6048 0.135317 20.7895 0.0174635C17.9743 -0.10039 15.166 0.3793 12.5495 1.42497C9.933 2.47064 7.56763 4.05857 5.60904 6.08426C3.65046 8.10995 2.14308 10.5275 1.18611 13.1777C0.229145 15.8279 -0.155711 18.6508 0.0568776 21.4604C0.269466 24.2701 1.07468 27.0029 2.41952 29.479C3.76435 31.955 5.61832 34.1182 7.8594 35.8261C9.2974 36.9439 10.8863 37.8526 12.579 38.5251C14.9521 39.4976 17.4919 39.9986 20.0565 40C25.3504 39.9883 30.4237 37.8781 34.1642 34.132C37.9048 30.3859 40.0075 25.3095 40.0114 20.0156C40.0153 17.2849 39.4528 14.5831 38.3596 12.0809ZM20.0418 4.07236C22.3448 4.07211 24.6201 4.57549 26.7081 5.54722C26.199 5.76722 25.6636 5.92088 25.1153 6.00443C23.3109 6.26562 21.6394 7.10331 20.3503 8.39248C19.0611 9.68165 18.2234 11.3532 17.9622 13.1575C17.8476 14.1694 17.3873 15.1109 16.6592 15.8229C15.9311 16.5349 14.9796 16.9739 13.9653 17.0659C12.161 17.3271 10.4895 18.1648 9.20031 19.4539C7.91114 20.7431 7.07344 22.4146 6.81225 24.219C6.72382 25.1812 6.31329 26.0854 5.64711 26.7852C4.49768 24.3565 3.98133 21.6765 4.1461 18.9946C4.31087 16.3127 5.15141 13.716 6.5895 11.4463C8.02759 9.17656 10.0165 7.30749 12.3711 6.01305C14.7257 4.71861 17.3695 4.04085 20.0565 4.04286L20.0418 4.07236ZM7.84466 30.3397C8.02164 30.1774 8.19863 30.0299 8.37561 29.8529C9.68772 28.5808 10.53 26.9015 10.7649 25.0891C10.8601 24.0704 11.315 23.1188 12.048 22.4049C12.7534 21.6707 13.7028 21.2196 14.7175 21.1365C16.5219 20.8753 18.1934 20.0376 19.4825 18.7485C20.7717 17.4593 21.6094 15.7878 21.8706 13.9834C21.9344 12.9179 22.3917 11.914 23.1537 11.1664C23.8765 10.4465 24.8349 10.0118 25.8527 9.94231C27.5103 9.71424 29.0563 8.97733 30.2773 7.83326C31.6676 8.9867 32.8455 10.3743 33.758 11.9334C33.7019 12.0091 33.6376 12.0784 33.5663 12.1399C32.8623 12.8805 31.9141 13.3415 30.8967 13.4377C29.0905 13.6944 27.4165 14.5306 26.1265 15.8206C24.8365 17.1106 24.0003 18.7846 23.7437 20.5908C23.6397 21.6062 23.188 22.5543 22.4649 23.2747C21.7419 23.9951 20.792 24.4433 19.7763 24.5434C17.9667 24.8026 16.2889 25.6387 14.9923 26.9273C13.6957 28.216 12.8493 29.8885 12.579 31.6965C12.4996 32.4173 12.252 33.1094 11.8563 33.7171C10.3431 32.8187 8.9878 31.6776 7.84466 30.3397ZM20.0418 36.0326C18.5452 36.0343 17.0558 35.8257 15.6172 35.4132C16.1093 34.4958 16.4292 33.4961 16.5611 32.4635C16.6645 31.4504 17.1141 30.504 17.8342 29.7839C18.5542 29.0638 19.5007 28.6142 20.5137 28.5108C22.3208 28.2526 23.9956 27.4162 25.2877 26.1268C26.5797 24.8373 27.4196 23.1642 27.6816 21.3577C27.7849 20.3447 28.2346 19.3983 28.9546 18.6782C29.6747 17.9581 30.6211 17.5085 31.6342 17.4051C32.994 17.2282 34.2901 16.7219 35.4098 15.9302C36.0316 18.2869 36.1052 20.7547 35.6251 23.1443C35.145 25.5339 34.124 27.7817 32.6402 29.7154C31.1565 31.6491 29.2496 33.2172 27.0657 34.2995C24.8818 35.3818 22.4791 35.9494 20.0418 35.9589V36.0326Z" fill="#B0B0B0"/>
</svg>
