<svg width="176" height="36" viewBox="0 0 176 36" fill="none" xmlns="http://www.w3.org/2000/svg">
<path d="M56.5791 28.7229C55.6895 28.7711 54.8096 28.5182 54.0814 28.005C53.7771 27.7795 53.5323 27.4832 53.3681 27.1418C53.204 26.8005 53.1254 26.4243 53.1392 26.0458V12.1814C53.1319 12.1227 53.1381 12.0631 53.1573 12.0072C53.1766 11.9513 53.2083 11.9005 53.2501 11.8586C53.2919 11.8168 53.3427 11.7851 53.3987 11.7658C53.4546 11.7466 53.5142 11.7404 53.5729 11.7477H56.0855C56.3697 11.7477 56.5043 11.8973 56.5043 12.1814V24.9689C56.5043 25.5373 56.7586 25.8214 57.282 25.8214C57.5039 25.8306 57.7259 25.8054 57.9401 25.7466C58.2392 25.7466 58.4037 25.8364 58.4187 26.1056L58.643 27.9751C58.6538 28.0296 58.6528 28.0858 58.64 28.1399C58.6273 28.1939 58.603 28.2447 58.569 28.2886C58.535 28.3325 58.492 28.3687 58.4428 28.3946C58.3937 28.4205 58.3395 28.4355 58.2841 28.4387C57.7337 28.6205 57.1586 28.7164 56.5791 28.7229Z" fill="#B0B0B0"/>
<path d="M70.7127 27.1226C69.4502 28.1657 67.8636 28.7364 66.2259 28.7364C64.5881 28.7364 63.0016 28.1657 61.739 27.1226C60.6293 26.0023 60.0068 24.4893 60.0068 22.9124C60.0068 21.3356 60.6293 19.8225 61.739 18.7023C63.004 17.6645 64.5897 17.0973 66.2259 17.0973C67.8621 17.0973 69.4477 17.6645 70.7127 18.7023C71.7968 19.8328 72.4021 21.3386 72.4021 22.905C72.4021 24.4713 71.7968 25.9771 70.7127 27.1076V27.1226ZM64.1021 25.1484C64.688 25.6791 65.4503 25.973 66.2408 25.973C67.0314 25.973 67.7937 25.6791 68.3795 25.1484C68.9098 24.5387 69.2019 23.7579 69.2019 22.9498C69.2019 22.1418 68.9098 21.361 68.3795 20.7513C67.7937 20.2205 67.0314 19.9266 66.2408 19.9266C65.4503 19.9266 64.688 20.2205 64.1021 20.7513C63.5718 21.361 63.2798 22.1418 63.2798 22.9498C63.2798 23.7579 63.5718 24.5387 64.1021 25.1484Z" fill="#B0B0B0"/>
<path d="M86.2371 17.4757C86.5213 17.4757 86.6559 17.6253 86.6559 17.9094V28.633C86.682 29.3568 86.5466 30.0773 86.2594 30.7421C85.9723 31.407 85.5406 31.9996 84.9958 32.4767C83.7865 33.5079 82.2312 34.0423 80.6435 33.9723C79.2095 34.0227 77.7945 33.6312 76.5904 32.8506C76.0762 32.513 75.637 32.0732 75.2999 31.5586C74.9629 31.044 74.7353 30.4657 74.6312 29.8594C74.6312 29.5603 74.6312 29.4257 75.035 29.4257H77.5476C77.6543 29.4293 77.7576 29.4637 77.8452 29.5247C77.9328 29.5858 78.0008 29.6708 78.0412 29.7697C78.2041 30.2239 78.529 30.602 78.9535 30.8315C79.4708 31.0985 80.0466 31.2321 80.6286 31.2204C80.9797 31.2396 81.3312 31.1887 81.6625 31.0706C81.9937 30.9525 82.2982 30.7695 82.5579 30.5324C82.7952 30.2844 82.9798 29.9909 83.1007 29.6696C83.2215 29.3483 83.276 29.0058 83.2609 28.6629V27.7207C82.3612 28.3824 81.2663 28.7245 80.15 28.6928C79.3687 28.7212 78.5897 28.5915 77.8598 28.3113C77.1299 28.0312 76.4641 27.6064 75.9024 27.0626C74.8242 25.9471 74.2214 24.4563 74.2214 22.9048C74.2214 21.3533 74.8242 19.8625 75.9024 18.747C76.4668 18.2079 77.1334 17.7873 77.8629 17.5099C78.5924 17.2325 79.37 17.1039 80.15 17.1317C81.2986 17.1014 82.423 17.4656 83.3356 18.1637V17.9244C83.3288 17.8671 83.3348 17.8089 83.3532 17.7542C83.3715 17.6995 83.4019 17.6496 83.442 17.608C83.4821 17.5665 83.5309 17.5344 83.585 17.5141C83.639 17.4938 83.6969 17.4858 83.7544 17.4907L86.2371 17.4757ZM80.4342 26.0306C80.8195 26.0426 81.2027 25.9697 81.5568 25.8172C81.9108 25.6647 82.2271 25.4364 82.4831 25.1482C82.9804 24.5061 83.2502 23.7169 83.2502 22.9048C83.2502 22.0926 82.9804 21.3035 82.4831 20.6614C82.2279 20.3771 81.9136 20.1521 81.5622 20.0023C81.2108 19.8524 80.8309 19.7813 80.4491 19.7939C80.0594 19.7817 79.6716 19.8542 79.3126 20.0066C78.9537 20.1589 78.6321 20.3875 78.3702 20.6763C77.8194 21.2906 77.5296 22.0953 77.5626 22.9197C77.5356 23.7361 77.8188 24.5323 78.3553 25.1482C78.6178 25.4363 78.9395 25.6643 79.2983 25.8166C79.6571 25.9689 80.0445 26.0419 80.4342 26.0306Z" fill="#B0B0B0"/>
<path d="M99.5631 27.1226C98.2981 28.1604 96.7125 28.7275 95.0762 28.7275C93.44 28.7275 91.8544 28.1604 90.5894 27.1226C89.5043 25.9895 88.8986 24.4813 88.8986 22.9124C88.8986 21.3436 89.5043 19.8353 90.5894 18.7023C91.8556 17.6672 93.4408 17.1017 95.0762 17.1017C96.7117 17.1017 98.2969 17.6672 99.5631 18.7023C100.647 19.8328 101.252 21.3386 101.252 22.905C101.252 24.4713 100.647 25.9771 99.5631 27.1076V27.1226ZM92.9375 25.1484C93.2242 25.4211 93.5622 25.6343 93.9319 25.7755C94.3016 25.9167 94.6956 25.9831 95.0912 25.971C95.4843 25.9811 95.8755 25.9137 96.2425 25.7726C96.6094 25.6314 96.945 25.4193 97.2299 25.1484C97.7515 24.5346 98.0379 23.7553 98.0379 22.9498C98.0379 22.1443 97.7515 21.3651 97.2299 20.7513C96.945 20.4803 96.6094 20.2682 96.2425 20.1271C95.8755 19.9859 95.4843 19.9185 95.0912 19.9287C94.6956 19.9165 94.3016 19.983 93.9319 20.1242C93.5622 20.2654 93.2242 20.4785 92.9375 20.7513C92.4159 21.3651 92.1295 22.1443 92.1295 22.9498C92.1295 23.7553 92.4159 24.5346 92.9375 25.1484Z" fill="#B0B0B0"/>
<path d="M106.652 14.9331C106.257 15.2791 105.749 15.4699 105.224 15.4699C104.699 15.4699 104.191 15.2791 103.796 14.9331C103.616 14.7639 103.474 14.5599 103.376 14.3336C103.278 14.1073 103.228 13.8634 103.228 13.617C103.228 13.3705 103.278 13.1266 103.376 12.9003C103.474 12.674 103.616 12.47 103.796 12.3008C104.195 11.9634 104.701 11.7783 105.224 11.7783C105.747 11.7783 106.253 11.9634 106.652 12.3008C106.832 12.47 106.974 12.674 107.072 12.9003C107.17 13.1266 107.22 13.3705 107.22 13.617C107.22 13.8634 107.17 14.1073 107.072 14.3336C106.974 14.5599 106.832 14.7639 106.652 14.9331ZM106.966 28.7227C106.077 28.7663 105.199 28.5138 104.469 28.0048C104.169 27.7759 103.929 27.4786 103.767 27.1377C103.606 26.7969 103.528 26.4224 103.541 26.0455V17.9094C103.534 17.8507 103.54 17.7911 103.56 17.7352C103.579 17.6792 103.611 17.6284 103.652 17.5866C103.694 17.5448 103.745 17.513 103.801 17.4938C103.857 17.4746 103.916 17.4684 103.975 17.4756H106.488C106.772 17.4756 106.907 17.6252 106.907 17.9094V24.9687C106.907 25.537 107.161 25.8212 107.669 25.8212C107.896 25.8293 108.123 25.8041 108.342 25.7464C108.641 25.7464 108.806 25.8361 108.821 26.1053L109.045 27.9749C109.056 28.0294 109.055 28.0855 109.042 28.1396C109.03 28.1937 109.005 28.2444 108.971 28.2883C108.937 28.3323 108.894 28.3684 108.845 28.3943C108.796 28.4202 108.742 28.4353 108.686 28.4385C108.131 28.6213 107.551 28.7172 106.966 28.7227Z" fill="#B0B0B0"/>
<path d="M118.288 17.1169C119.073 17.0859 119.856 17.2129 120.591 17.4903C121.326 17.7678 121.997 18.1901 122.566 18.7321C123.623 19.8672 124.211 21.361 124.211 22.9124C124.211 24.4638 123.623 25.9576 122.566 27.0926C122 27.6395 121.329 28.0659 120.594 28.3461C119.859 28.6263 119.074 28.7545 118.288 28.7228C117.168 28.7477 116.071 28.4064 115.162 27.7507V33.1499C115.162 33.434 115.013 33.5686 114.729 33.5686H112.216C112.159 33.5793 112.1 33.5759 112.044 33.5587C111.988 33.5414 111.937 33.5108 111.896 33.4696C111.855 33.4284 111.824 33.3777 111.807 33.322C111.79 33.2663 111.787 33.2072 111.797 33.1499V20.8858C111.815 20.7659 111.804 20.6435 111.766 20.5284C111.728 20.4133 111.663 20.3087 111.578 20.2229C111.492 20.1372 111.387 20.0727 111.272 20.0346C111.157 19.9965 111.035 19.9858 110.915 20.0034H110.421C110.092 20.0034 109.928 19.8838 109.928 19.6445V17.8796C109.92 17.7704 109.95 17.6619 110.012 17.5721C110.075 17.4822 110.167 17.4166 110.272 17.3861C110.789 17.198 111.337 17.1068 111.887 17.1169C112.436 17.0683 112.987 17.1847 113.469 17.4511C113.951 17.7176 114.343 18.122 114.594 18.6125C115.076 18.1252 115.652 17.7412 116.287 17.484C116.922 17.2269 117.603 17.1019 118.288 17.1169ZM115.955 25.1483C116.222 25.427 116.542 25.6488 116.897 25.8003C117.252 25.9519 117.633 26.03 118.019 26.03C118.405 26.03 118.786 25.9519 119.141 25.8003C119.496 25.6488 119.816 25.427 120.083 25.1483C120.645 24.5218 120.94 23.7008 120.906 22.86C120.945 22.0185 120.649 21.1957 120.083 20.5717C119.816 20.293 119.496 20.0712 119.141 19.9197C118.786 19.7682 118.405 19.6901 118.019 19.6901C117.633 19.6901 117.252 19.7682 116.897 19.9197C116.542 20.0712 116.222 20.293 115.955 20.5717C115.411 21.2068 115.128 22.0245 115.162 22.86C115.132 23.6949 115.415 24.5111 115.955 25.1483Z" fill="#B0B0B0"/>
<path d="M131.27 28.7227C129.927 28.7779 128.596 28.4567 127.426 27.7954C126.957 27.5127 126.557 27.1279 126.257 26.6696C125.957 26.2114 125.763 25.6913 125.691 25.1481C125.691 24.849 125.796 24.6995 126.125 24.6995H128.324C128.428 24.7035 128.53 24.7364 128.617 24.7945C128.704 24.8525 128.773 24.9335 128.817 25.0285C129.131 25.8361 129.954 26.2399 131.27 26.2399C131.729 26.2609 132.186 26.1685 132.601 25.9707C132.744 25.9061 132.867 25.8037 132.957 25.6747C133.046 25.5456 133.099 25.3946 133.11 25.2379C133.11 24.849 132.87 24.5798 132.392 24.4003C131.824 24.2114 131.237 24.086 130.642 24.0264C129.937 23.9466 129.237 23.8217 128.548 23.6525C127.878 23.5008 127.268 23.1518 126.798 22.6505C126.521 22.3097 126.318 21.9157 126.2 21.4928C126.081 21.07 126.052 20.6273 126.112 20.1925C126.172 19.7576 126.321 19.3398 126.55 18.9651C126.779 18.5903 127.082 18.2666 127.441 18.0141C128.519 17.3273 129.784 16.9928 131.061 17.0569C132.297 17.0151 133.519 17.3208 134.59 17.9393C135.022 18.1837 135.394 18.5213 135.678 18.9275C135.963 19.3337 136.153 19.7983 136.236 20.2874C136.236 20.5865 136.101 20.7361 135.832 20.7361H133.618C133.525 20.7416 133.432 20.7189 133.352 20.6708C133.272 20.6228 133.208 20.5517 133.169 20.4669C133.022 20.1126 132.743 19.8288 132.392 19.6742C131.995 19.4668 131.553 19.3639 131.106 19.3751C130.667 19.3512 130.23 19.4387 129.834 19.6293C129.695 19.6831 129.575 19.7774 129.49 19.9C129.404 20.0226 129.358 20.168 129.356 20.3173C129.365 20.5218 129.44 20.7179 129.569 20.8767C129.699 21.0356 129.875 21.1488 130.074 21.1997C130.648 21.4162 131.245 21.5667 131.853 21.6484C132.553 21.7404 133.247 21.8703 133.932 22.0373C134.603 22.189 135.212 22.538 135.682 23.0393C135.934 23.3155 136.128 23.6388 136.254 23.9905C136.379 24.3422 136.434 24.7153 136.415 25.0883C136.428 25.6053 136.307 26.1168 136.063 26.573C135.819 27.0291 135.461 27.4142 135.024 27.6907C133.907 28.408 132.597 28.768 131.27 28.7227Z" fill="#B0B0B0"/>
<path d="M152.224 27.9752C152.232 28.0283 152.23 28.0826 152.217 28.1348C152.204 28.187 152.181 28.2362 152.149 28.2794C152.117 28.3226 152.077 28.3589 152.03 28.3863C151.984 28.4137 151.933 28.4315 151.88 28.4388C151.334 28.6171 150.764 28.7129 150.19 28.723C149.621 28.7819 149.047 28.693 148.523 28.4651C147.999 28.2371 147.543 27.8778 147.198 27.4218C146.142 28.3301 144.776 28.7961 143.385 28.723C142.739 28.7528 142.093 28.6471 141.491 28.4127C140.888 28.1783 140.341 27.8204 139.885 27.362C139.432 26.8817 139.08 26.3149 138.852 25.6955C138.623 25.0762 138.522 24.417 138.554 23.7576V17.9097C138.554 17.6255 138.688 17.476 138.972 17.476H141.485C141.769 17.476 141.904 17.6255 141.904 17.9097V23.3089C141.877 23.9815 142.107 24.6394 142.547 25.1485C142.767 25.3817 143.034 25.5651 143.331 25.6864C143.627 25.8076 143.947 25.8639 144.267 25.8514C144.595 25.8658 144.922 25.815 145.23 25.702C145.538 25.5891 145.821 25.4162 146.062 25.1933C146.29 24.9585 146.467 24.6794 146.583 24.3732C146.698 24.0671 146.75 23.7405 146.735 23.4136V17.9097C146.735 17.6255 146.869 17.476 147.154 17.476H149.696C149.98 17.476 150.115 17.6255 150.115 17.9097V24.9541C150.115 25.5373 150.369 25.8215 150.863 25.8215C151.094 25.8305 151.326 25.8053 151.551 25.7467C151.607 25.7309 151.667 25.728 151.724 25.7384C151.782 25.7488 151.837 25.7721 151.884 25.8067C151.932 25.8412 151.971 25.886 151.999 25.9378C152.026 25.9896 152.042 26.047 152.044 26.1057L152.224 27.9752Z" fill="#B0B0B0"/>
<path d="M175.989 27.9748C176.002 28.0284 176.004 28.0842 175.993 28.1384C175.982 28.1925 175.959 28.2435 175.926 28.2878C175.894 28.3322 175.851 28.3687 175.803 28.3947C175.754 28.4207 175.7 28.4357 175.645 28.4385C175.089 28.6193 174.509 28.7151 173.925 28.7226C173.036 28.7685 172.157 28.5158 171.427 28.0048C171.112 27.7858 170.856 27.4925 170.681 27.1507C170.506 26.8089 170.418 26.4293 170.425 26.0455V22.5308C170.457 21.8601 170.232 21.2026 169.797 20.6912C169.587 20.4574 169.328 20.2731 169.039 20.1516C168.749 20.03 168.436 19.9742 168.122 19.9883C167.839 19.9776 167.558 20.0312 167.299 20.1452C167.039 20.2592 166.81 20.4306 166.626 20.6463C166.232 21.1475 166.03 21.7738 166.058 22.4111V27.93C166.058 28.2141 165.923 28.3637 165.639 28.3637H163.112C163.053 28.371 162.993 28.3648 162.938 28.3455C162.882 28.3263 162.831 28.2946 162.789 28.2528C162.747 28.2109 162.715 28.1601 162.696 28.1042C162.677 28.0482 162.671 27.9887 162.678 27.93V22.5308C162.711 21.8675 162.504 21.2145 162.095 20.6912C161.912 20.4714 161.684 20.2944 161.425 20.1729C161.167 20.0514 160.885 19.9884 160.599 19.9883C160.294 19.9759 159.99 20.0282 159.706 20.1416C159.423 20.255 159.166 20.427 158.954 20.6463C158.526 21.1315 158.306 21.7652 158.341 22.4111V27.93C158.348 27.9887 158.342 28.0482 158.323 28.1042C158.303 28.1601 158.272 28.2109 158.23 28.2528C158.188 28.2946 158.137 28.3263 158.081 28.3455C158.025 28.3648 157.966 28.371 157.907 28.3637H155.469C155.185 28.3637 155.05 28.2141 155.05 27.93V20.8856C155.068 20.7657 155.057 20.6433 155.019 20.5282C154.981 20.4131 154.917 20.3085 154.831 20.2228C154.745 20.137 154.641 20.0725 154.525 20.0344C154.41 19.9963 154.288 19.9856 154.168 20.0032H153.674C153.345 20.0032 153.181 19.8836 153.181 19.6443V17.8794C153.173 17.7702 153.203 17.6617 153.266 17.5719C153.328 17.482 153.42 17.4164 153.525 17.3859C154.042 17.1978 154.59 17.1066 155.14 17.1167C155.668 17.0717 156.199 17.177 156.67 17.4204C157.141 17.6639 157.533 18.0356 157.802 18.4926C158.307 18.0144 158.905 17.6454 159.558 17.4086C160.212 17.1719 160.907 17.0725 161.601 17.1167C162.275 17.0838 162.947 17.2102 163.563 17.4856C164.179 17.7611 164.721 18.1778 165.146 18.702C165.641 18.1641 166.249 17.7428 166.927 17.4686C167.604 17.1945 168.334 17.0742 169.064 17.1167C169.717 17.0861 170.369 17.1913 170.979 17.4256C171.589 17.6598 172.144 18.0181 172.609 18.4777C173.063 18.957 173.416 19.5237 173.644 20.1433C173.873 20.7629 173.974 21.4225 173.94 22.0821V24.9687C173.94 25.537 174.194 25.8212 174.673 25.8212C174.905 25.832 175.137 25.8067 175.361 25.7464C175.67 25.7464 175.834 25.866 175.854 26.1053L175.989 27.9748Z" fill="#B0B0B0"/>
<path d="M0.613202 15.5315C1.71662 11.0965 4.27211 7.15821 7.87277 4.34362C11.4734 1.52902 15.9122 0 20.4824 0C25.0526 0 29.4915 1.52902 33.0921 4.34362C36.6928 7.15821 39.2483 11.0965 40.3517 15.5315H38.5569C35.5294 15.487 32.5638 16.3918 30.0768 18.119C29.9333 18.2229 29.7834 18.3178 29.6281 18.4031H29.4187C29.2634 18.3178 29.1136 18.2229 28.9701 18.119C26.461 16.4318 23.506 15.5306 20.4824 15.5306C17.4589 15.5306 14.5039 16.4318 11.9948 18.119C11.8513 18.2229 11.7015 18.3178 11.5461 18.4031H11.3368C11.1815 18.3178 11.0316 18.2229 10.8881 18.119C8.40107 16.3918 5.43554 15.487 2.40794 15.5315H0.613202ZM35.3264 24.909C36.2477 24.1915 37.3896 23.8162 38.5569 23.8472H40.9649V19.0462H38.5569C36.5008 19.0214 34.4917 19.6613 32.8287 20.8709C31.8929 21.5608 30.7608 21.933 29.5982 21.933C28.4356 21.933 27.3035 21.5608 26.3677 20.8709C24.6626 19.6839 22.6348 19.0476 20.5572 19.0476C18.4796 19.0476 16.4519 19.6839 14.7468 20.8709C13.811 21.5608 12.6789 21.933 11.5162 21.933C10.3536 21.933 9.22151 21.5608 8.28571 20.8709C6.60224 19.6459 4.56431 19.0051 2.48272 19.0462H0V23.8472H2.40794C3.57528 23.8162 4.71715 24.1915 5.63847 24.909C7.34049 26.0968 9.36598 26.7336 11.4415 26.7336C13.5169 26.7336 15.5424 26.0968 17.2444 24.909C18.1669 24.1937 19.308 23.8187 20.475 23.8472C21.6427 23.8137 22.7854 24.1893 23.7055 24.909C25.4106 26.096 27.4384 26.7323 29.516 26.7323C31.5935 26.7323 33.6213 26.096 35.3264 24.909ZM35.3264 33.4939C36.2477 32.7764 37.3896 32.401 38.5569 32.432H40.9649V27.6311H38.5569C36.5008 27.6062 34.4917 28.2462 32.8287 29.4557C31.8929 30.1456 30.7608 30.5178 29.5982 30.5178C28.4356 30.5178 27.3035 30.1456 26.3677 29.4557C24.6626 28.2687 22.6348 27.6325 20.5572 27.6325C18.4796 27.6325 16.4519 28.2687 14.7468 29.4557C13.811 30.1456 12.6789 30.5178 11.5162 30.5178C10.3536 30.5178 9.22151 30.1456 8.28571 29.4557C6.60224 28.2307 4.56431 27.5899 2.48272 27.6311H0V32.432H2.40794C3.57528 32.401 4.71715 32.7764 5.63847 33.4939C7.34049 34.6816 9.36598 35.3185 11.4415 35.3185C13.5169 35.3185 15.5424 34.6816 17.2444 33.4939C18.1669 32.7786 19.308 32.4035 20.475 32.432C21.6427 32.3985 22.7854 32.7741 23.7055 33.4939C25.4106 34.6808 27.4384 35.3171 29.516 35.3171C31.5935 35.3171 33.6213 34.6808 35.3264 33.4939Z" fill="#B0B0B0"/>
</svg>
