<svg width="174" height="40" viewBox="0 0 174 40" fill="none" xmlns="http://www.w3.org/2000/svg">
<path d="M37.2341 13.9697C37.7395 13.9697 37.908 14.1523 37.908 14.6437V25.7634H43.6223C44.1137 25.7634 44.2962 25.9459 44.2962 26.4373V27.4201C44.2962 27.9115 44.1137 28.094 43.6223 28.094H36.0968C35.6054 28.094 35.4089 27.9115 35.4089 27.4201V14.6437C35.4089 14.1523 35.6054 13.9697 36.0968 13.9697H37.2341Z" fill="#B0B0B0"/>
<path d="M49.2804 18.8698C49.2804 15.6265 51.3302 13.675 54.8964 13.675C58.4626 13.675 60.5124 15.6265 60.5124 18.8698V23.1941C60.5124 26.4373 58.4485 28.3889 54.8964 28.3889C51.3443 28.3889 49.2804 26.4373 49.2804 23.1941V18.8698ZM58.1537 18.8698C58.1537 17.0446 57.0165 16.0618 54.9666 16.0618C52.9168 16.0618 51.7936 17.0586 51.7936 18.8698V23.2222C51.7936 25.0614 52.9168 26.0302 54.9666 26.0302C57.0165 26.0302 58.1537 25.0193 58.1537 23.2222V18.8698Z" fill="#B0B0B0"/>
<path d="M77.2341 20.358C77.7817 20.358 77.908 20.5405 77.908 21.0319V23.6995C77.9229 24.3278 77.797 24.9515 77.5394 25.5249C77.2819 26.0982 76.8994 26.6067 76.4198 27.0129C75.2288 27.9613 73.727 28.4319 72.2078 28.3327C68.5714 28.3327 66.5918 26.3811 66.5918 23.1379V18.7855C66.5918 15.5843 68.6416 13.6187 72.2078 13.6187C75.0158 13.6187 76.841 14.7279 77.6132 16.9462C77.6564 17.0296 77.6795 17.1219 77.6808 17.2157C77.6821 17.3096 77.6615 17.4025 77.6206 17.487C77.5797 17.5715 77.5197 17.6453 77.4453 17.7025C77.3709 17.7598 77.2842 17.7989 77.192 17.8167L76.0969 18.1958C75.6195 18.3643 75.4229 18.266 75.2545 17.7746C75.0219 17.1749 74.596 16.6698 74.0443 16.3393C73.4925 16.0087 72.8463 15.8715 72.2078 15.9494C70.1439 15.9494 69.0207 16.9462 69.0207 18.7574V23.2221C69.0207 25.0614 70.1579 26.0301 72.2078 26.0301C74.2576 26.0301 75.5212 25.0894 75.5212 23.7135V22.6746H72.4745C71.9691 22.6746 71.7866 22.478 71.7866 21.9866V21.0319C71.7866 20.5405 71.9691 20.358 72.4745 20.358H77.2341Z" fill="#B0B0B0"/>
<path d="M83.7066 18.8698C83.7066 15.6265 85.7564 13.675 89.3226 13.675C92.8887 13.675 94.9386 15.6265 94.9386 18.8698V23.1941C94.9386 26.4373 92.8747 28.3889 89.3226 28.3889C85.7704 28.3889 83.7066 26.4373 83.7066 23.1941V18.8698ZM92.5658 18.8698C92.5658 17.0446 91.4286 16.0618 89.3928 16.0618C87.357 16.0618 86.2057 17.0586 86.2057 18.8698V23.2222C86.2057 25.0614 87.3429 26.0302 89.3928 26.0302C91.4426 26.0302 92.5658 25.0193 92.5658 23.2222V18.8698Z" fill="#B0B0B0"/>
<path d="M101.551 14.3769C101.551 14.068 101.65 13.9697 101.959 13.9697H102.604C102.913 13.9697 102.983 14.068 102.983 14.3769V27.6868C102.983 27.9957 102.983 28.094 102.604 28.094H101.959C101.65 28.094 101.551 27.9957 101.551 27.6868V14.3769Z" fill="#B0B0B0"/>
<path d="M115.774 13.9697C116.943 13.9697 118.065 14.4342 118.891 15.261C119.718 16.0878 120.183 17.2091 120.183 18.3783C120.183 19.5475 119.718 20.6689 118.891 21.4956C118.065 22.3224 116.943 22.7869 115.774 22.7869H111.562V27.6868C111.562 27.9957 111.492 28.094 111.197 28.094H110.537C110.242 28.094 110.13 27.9957 110.13 27.6868V14.3769C110.13 14.068 110.242 13.9697 110.537 13.9697H115.774ZM115.648 21.3969C116.05 21.3969 116.448 21.3177 116.819 21.1639C117.19 21.0101 117.528 20.7847 117.812 20.5004C118.096 20.2162 118.322 19.8788 118.475 19.5075C118.629 19.1361 118.708 18.7381 118.708 18.3362C118.708 17.9343 118.629 17.5362 118.475 17.1649C118.322 16.7936 118.096 16.4561 117.812 16.1719C117.528 15.8877 117.19 15.6623 116.819 15.5085C116.448 15.3546 116.05 15.2755 115.648 15.2755H111.436V21.3969H115.648Z" fill="#B0B0B0"/>
<path d="M131.148 13.6891C132.232 13.5695 133.325 13.8027 134.266 14.3541C135.207 14.9055 135.945 15.7456 136.371 16.7498C136.483 16.9745 136.371 17.157 136.146 17.2693L135.528 17.5501C135.275 17.6484 135.177 17.6343 135.023 17.3676C134.705 16.6223 134.158 15.9975 133.461 15.5836C132.765 15.1697 131.954 14.9881 131.148 15.065C128.775 15.065 127.483 16.0057 127.483 17.6905C127.47 18.2054 127.642 18.7079 127.97 19.1053C128.298 19.5027 128.758 19.7681 129.266 19.8527C130.022 20.0989 130.804 20.2499 131.597 20.3019C132.556 20.3531 133.503 20.5471 134.405 20.8776C135.097 21.0964 135.692 21.5466 136.091 22.1526C136.49 22.7585 136.668 23.4833 136.595 24.2051C136.595 26.8306 134.686 28.4171 131.176 28.4171C130.025 28.5488 128.863 28.282 127.884 27.6612C126.906 27.0404 126.17 26.1031 125.798 25.0054C125.774 24.9553 125.76 24.9004 125.759 24.8446C125.758 24.7887 125.769 24.7334 125.792 24.6824C125.815 24.6314 125.849 24.5861 125.891 24.5497C125.933 24.5133 125.983 24.4867 126.037 24.4718L126.655 24.2472C126.704 24.2273 126.756 24.2178 126.808 24.2192C126.861 24.2206 126.913 24.2329 126.96 24.2553C127.008 24.2778 127.05 24.3099 127.084 24.3496C127.119 24.3892 127.145 24.4357 127.16 24.4859C127.474 25.279 128.033 25.9516 128.755 26.4059C129.477 26.8603 130.325 27.073 131.176 27.0131C133.829 27.0131 135.135 26.0864 135.135 24.2051C135.16 23.7105 135.008 23.2232 134.708 22.8299C134.407 22.4366 133.976 22.1627 133.492 22.0569C132.766 21.8402 132.017 21.7083 131.26 21.6638L129.744 21.4673C129.269 21.3665 128.8 21.24 128.34 21.0882C127.885 20.9507 127.46 20.7267 127.09 20.4283C126.718 20.091 126.424 19.676 126.23 19.2125C126.036 18.7491 125.946 18.2487 125.967 17.7467C126.065 15.2897 127.904 13.6891 131.148 13.6891Z" fill="#B0B0B0"/>
<path d="M144.163 23.2923C144.222 24.2852 144.659 25.2178 145.383 25.8998C146.107 26.5817 147.064 26.9614 148.059 26.9614C149.054 26.9614 150.011 26.5817 150.735 25.8998C151.459 25.2178 151.895 24.2852 151.955 23.2923V14.3769C151.955 14.068 152.053 13.9697 152.362 13.9697H153.008C153.317 13.9697 153.415 14.068 153.415 14.3769V23.2783C153.415 26.4654 151.534 28.3888 148.066 28.3888C144.598 28.3888 142.717 26.4654 142.717 23.2783V14.3769C142.717 14.068 142.815 13.9697 143.11 13.9697H143.77C144.065 13.9697 144.163 14.068 144.163 14.3769V23.2923Z" fill="#B0B0B0"/>
<path d="M172.79 13.9698C173.099 13.9698 173.198 14.0681 173.198 14.3769V27.6869C173.198 27.9957 173.099 28.094 172.79 28.094H172.201C171.906 28.094 171.808 27.9957 171.808 27.6869V19.5858C171.807 18.407 171.887 17.2297 172.046 16.0617H171.962C171.523 17.1298 171.012 18.1665 170.432 19.1646L167.413 24.4857C167.376 24.5781 167.312 24.657 167.229 24.7121C167.147 24.7673 167.049 24.796 166.95 24.7946H166.557C166.456 24.7951 166.357 24.7661 166.272 24.7113C166.187 24.6564 166.12 24.5781 166.079 24.4857L163.019 19.1084C162.475 18.1246 162.006 17.1015 161.615 16.0477H161.53C161.674 17.2264 161.749 18.4124 161.755 19.5998V27.6869C161.755 27.9957 161.657 28.094 161.348 28.094H160.8C160.491 28.094 160.393 27.9957 160.393 27.6869V14.3769C160.393 14.0681 160.491 13.9698 160.8 13.9698H161.306C161.421 13.959 161.537 13.9843 161.638 14.0421C161.738 14.0999 161.819 14.1875 161.867 14.2927L166.781 23.0256L171.667 14.3769C171.822 14.0821 171.906 14.04 172.215 14.04L172.79 13.9698Z" fill="#B0B0B0"/>
<path d="M12.2569 24.9772V35.1281C12.2569 35.5172 12.1024 35.8904 11.8272 36.1656C11.5521 36.4407 11.1789 36.5953 10.7898 36.5953C10.4006 36.5953 10.0274 36.4407 9.7523 36.1656C9.47715 35.8904 9.32257 35.5172 9.32257 35.1281V24.9912C9.73108 25.2895 10.2209 25.4561 10.7266 25.4686C11.2778 25.4843 11.8179 25.3109 12.2569 24.9772ZM24.7525 22.0428C24.3802 22.0428 24.0231 22.1907 23.7598 22.454C23.4965 22.7173 23.3485 23.0745 23.3485 23.4468V25.2159C23.3485 25.605 23.5031 25.9782 23.7783 26.2533C24.0534 26.5285 24.4266 26.683 24.8157 26.683C25.2048 26.683 25.578 26.5285 25.8532 26.2533C26.1283 25.9782 26.2829 25.605 26.2829 25.2159V23.517C26.2938 23.3157 26.2613 23.1144 26.1874 22.9268C26.1136 22.7392 26.0002 22.5697 25.855 22.4298C25.7098 22.2899 25.5362 22.1829 25.3459 22.1162C25.1557 22.0494 24.9533 22.0244 24.7525 22.0428ZM6.13549 28.8242C5.63028 28.809 5.14122 28.6427 4.73149 28.3468V38.5258C4.73149 38.9168 4.8868 39.2918 5.16327 39.5682C5.43973 39.8447 5.8147 40 6.20569 40C6.59667 40 6.97164 39.8447 7.24811 39.5682C7.52457 39.2918 7.67989 38.9168 7.67989 38.5258V28.417C7.22142 28.7133 6.68047 28.8559 6.13549 28.8242ZM20.1755 18.9961C19.9853 18.9866 19.7952 19.0159 19.6166 19.0822C19.4381 19.1485 19.2749 19.2504 19.137 19.3817C18.9991 19.513 18.8894 19.671 18.8145 19.8461C18.7396 20.0212 18.7011 20.2097 18.7013 20.4001V28.2204C18.7013 28.6114 18.8566 28.9864 19.1331 29.2628C19.4096 29.5393 19.7845 29.6946 20.1755 29.6946C20.5665 29.6946 20.9415 29.5393 21.2179 29.2628C21.4944 28.9864 21.6497 28.6114 21.6497 28.2204V20.4984C21.6609 20.2958 21.628 20.0932 21.5534 19.9045C21.4787 19.7158 21.3641 19.5455 21.2173 19.4054C21.0705 19.2653 20.8951 19.1586 20.7031 19.0928C20.5111 19.027 20.3072 19.0036 20.1053 19.0242L20.1755 18.9961ZM15.5142 22.0007C14.9854 21.9971 14.4706 21.8304 14.04 21.5233V31.7304C14.04 32.1214 14.1953 32.4964 14.4718 32.7729C14.7483 33.0493 15.1232 33.2046 15.5142 33.2046C15.9052 33.2046 16.2802 33.0493 16.5566 32.7729C16.8331 32.4964 16.9884 32.1214 16.9884 31.7304V21.5374C16.543 21.8692 15.9993 22.0422 15.444 22.0288L15.5142 22.0007ZM2.9484 29.821V1.30572C2.94471 0.958138 2.80403 0.626052 2.55693 0.381577C2.30982 0.137102 1.97625 -1.96682e-05 1.62864 2.11588e-09H1.31976C0.972159 -1.96682e-05 0.638583 0.137102 0.39148 0.381577C0.144376 0.626052 0.00369791 0.958138 0 1.30572V29.821C0 30.171 0.139046 30.5067 0.38655 30.7542C0.634053 31.0017 0.96974 31.1408 1.31976 31.1408H1.62864C1.97867 31.1408 2.31435 31.0017 2.56186 30.7542C2.80936 30.5067 2.9484 30.171 2.9484 29.821ZM6.28993 27.7431H5.98105C5.63102 27.7431 5.29534 27.604 5.04783 27.3565C4.80033 27.109 4.66129 26.7733 4.66129 26.4233V4.70341C4.66498 4.35582 4.80566 4.02373 5.05276 3.77926C5.29987 3.53478 5.63344 3.39767 5.98105 3.39769H6.28993C6.63753 3.39767 6.97111 3.53478 7.21821 3.77926C7.46531 4.02373 7.60599 4.35582 7.60969 4.70341V26.4514C7.60969 26.8014 7.47064 27.1371 7.22314 27.3846C6.97563 27.6321 6.63995 27.7712 6.28993 27.7712V27.7431ZM10.9372 24.4015H10.6143C10.268 24.4015 9.93584 24.264 9.69097 24.0191C9.4461 23.7742 9.30853 23.4421 9.30853 23.0958V8.07301C9.30667 7.90036 9.33908 7.72906 9.40386 7.56902C9.46865 7.40898 9.56453 7.26337 9.68597 7.14064C9.8074 7.0179 9.95197 6.92046 10.1113 6.85397C10.2706 6.78747 10.4416 6.75324 10.6143 6.75325H10.9372C11.2848 6.75695 11.6168 6.89762 11.8613 7.14473C12.1058 7.39183 12.2429 7.7254 12.2429 8.07301V23.0958C12.2429 23.4421 12.1053 23.7742 11.8605 24.0191C11.6156 24.264 11.2835 24.4015 10.9372 24.4015ZM15.2896 20.9617C14.942 20.9618 14.6084 20.8246 14.3613 20.5802C14.1142 20.3357 13.9735 20.0036 13.9698 19.656V11.569C13.9583 11.3887 13.9839 11.208 14.045 11.038C14.1062 10.868 14.2016 10.7124 14.3253 10.5808C14.449 10.4492 14.5984 10.3444 14.7643 10.2728C14.9302 10.2013 15.1089 10.1646 15.2896 10.165H15.5985C15.9485 10.165 16.2842 10.304 16.5317 10.5515C16.7792 10.799 16.9182 11.1347 16.9182 11.4847V19.6279C16.9201 19.8024 16.8873 19.9756 16.8218 20.1373C16.7563 20.2991 16.6594 20.4462 16.5367 20.5702C16.4139 20.6943 16.2678 20.7928 16.1068 20.86C15.9457 20.9272 15.773 20.9618 15.5985 20.9617H15.2896ZM19.9368 17.9431C19.5868 17.9431 19.2511 17.8041 19.0036 17.5566C18.7561 17.3091 18.6171 16.9734 18.6171 16.6234V14.5314C18.6208 14.1838 18.7614 13.8517 19.0085 13.6073C19.2556 13.3628 19.5892 13.2257 19.9368 13.2257H20.2457C20.5933 13.2257 20.9269 13.3628 21.174 13.6073C21.4211 13.8517 21.5618 14.1838 21.5655 14.5314V16.6234C21.5655 16.971 21.4284 17.3046 21.1839 17.5517C20.9394 17.7988 20.6073 17.9394 20.2597 17.9431H19.9368Z" fill="#B0B0B0"/>
</svg>
