<svg width="154" height="40" viewBox="0 0 154 40" fill="none" xmlns="http://www.w3.org/2000/svg">
<path d="M24.8845 9.51391H27.3147V26.4276H34.6051V28.8578H24.8845V9.51391ZM42.1749 9.51391C43.6168 9.51391 45.0264 9.94149 46.2253 10.7426C47.4242 11.5437 48.3586 12.6823 48.9104 14.0144C49.4622 15.3465 49.6066 16.8124 49.3253 18.2266C49.044 19.6408 48.3496 20.9398 47.33 21.9594C46.3105 22.979 45.0114 23.6733 43.5972 23.9546C42.183 24.2359 40.7172 24.0916 39.385 23.5398C38.0529 22.988 36.9143 22.0535 36.1132 20.8546C35.3121 19.6557 34.8845 18.2462 34.8845 16.8043C34.8845 15.8469 35.0731 14.8989 35.4395 14.0144C35.8059 13.1299 36.3429 12.3262 37.0199 11.6492C37.6968 10.9722 38.5005 10.4352 39.385 10.0689C40.2695 9.70249 41.2176 9.51391 42.1749 9.51391ZM42.1749 21.6646C43.1362 21.6646 44.0759 21.3795 44.8752 20.8455C45.6744 20.3114 46.2974 19.5524 46.6652 18.6643C47.0331 17.7762 47.1294 16.7989 46.9418 15.8561C46.7543 14.9133 46.2914 14.0473 45.6117 13.3676C44.932 12.6879 44.0659 12.225 43.1231 12.0374C42.1803 11.8499 41.2031 11.9462 40.315 12.314C39.4269 12.6819 38.6678 13.3048 38.1338 14.1041C37.5997 14.9034 37.3147 15.843 37.3147 16.8043C37.3211 18.0891 37.836 19.3191 38.7468 20.2253C39.6576 21.1316 40.8901 21.6403 42.1749 21.6403V21.6646ZM37.3147 26.4519H47.0352V28.8821H37.3147V26.4519ZM68.4204 28.8821H65.9903V27.1445C64.4231 28.2415 62.5569 28.831 60.644 28.8335C59.0127 28.8444 57.405 28.4446 55.9689 27.671C54.5327 26.8973 53.3144 25.7747 52.4261 24.4065C51.5377 23.0383 51.008 21.4686 50.8857 19.8419C50.7634 18.2153 51.0525 16.584 51.7262 15.0983C52.4 13.6127 53.4368 12.3205 54.7411 11.3409C56.0454 10.3612 57.5753 9.7255 59.1898 9.49239C60.8043 9.25928 62.4516 9.43623 63.9797 10.0069C65.5079 10.5777 66.8679 11.5238 67.9344 12.7581L66.1482 14.3499C65.3371 13.443 64.3119 12.7536 63.166 12.3444C62.0202 11.9352 60.7901 11.8193 59.588 12.0073C58.3859 12.1952 57.25 12.6811 56.2837 13.4205C55.3175 14.1599 54.5517 15.1294 54.0561 16.2406C53.5605 17.3518 53.3509 18.5694 53.4464 19.7823C53.5419 20.9953 53.9394 22.1651 54.6028 23.185C55.2661 24.205 56.1742 25.0427 57.2443 25.6218C58.3143 26.2009 59.5123 26.503 60.729 26.5005C61.7388 26.5026 62.7371 26.2866 63.6556 25.8672C64.5741 25.4477 65.3913 24.8348 66.051 24.0704H59.4896V21.6403H68.4447L68.4204 28.8821ZM77.3633 9.56252C78.8052 9.56252 80.2147 9.99009 81.4136 10.7912C82.6125 11.5923 83.5469 12.7309 84.0987 14.063C84.6505 15.3952 84.7949 16.861 84.5136 18.2752C84.2323 19.6894 83.538 20.9884 82.5184 22.008C81.4988 23.0276 80.1998 23.7219 78.7856 24.0032C77.3714 24.2845 75.9055 24.1402 74.5734 23.5884C73.2412 23.0366 72.1026 22.1021 71.3015 20.9032C70.5005 19.7043 70.0729 18.2948 70.0729 16.8529C70.0664 15.8894 70.2511 14.9342 70.6161 14.0424C70.9811 13.1507 71.5193 12.3402 72.1995 11.6577C72.8797 10.9753 73.6884 10.4344 74.5789 10.0665C75.4694 9.69848 76.424 9.51068 77.3876 9.51391L77.3633 9.56252ZM77.3633 21.7132C78.3245 21.7132 79.2642 21.4281 80.0635 20.8941C80.8628 20.36 81.4857 19.601 81.8536 18.7129C82.2214 17.8248 82.3177 16.8475 82.1302 15.9047C81.9426 14.9619 81.4797 14.0959 80.8 13.4162C80.1203 12.7365 79.2543 12.2736 78.3115 12.086C77.3687 11.8985 76.3914 11.9948 75.5033 12.3626C74.6152 12.7305 73.8562 13.3534 73.3221 14.1527C72.7881 14.952 72.503 15.8916 72.503 16.8529C72.5222 18.1335 73.0461 19.3547 73.9607 20.2512C74.8754 21.1476 76.1069 21.6468 77.3876 21.6403L77.3633 21.7132ZM72.503 26.5005H82.2235V28.9307H72.503V26.5005ZM87.2418 9.51391H89.6719V28.8335H87.2418V9.51391ZM93.0376 9.51391H95.4678C95.593 9.50064 95.7192 9.50064 95.8444 9.51391C96.8622 9.4035 97.8918 9.50867 98.8662 9.82258C99.8406 10.1365 100.738 10.6521 101.5 11.3358C102.262 12.0195 102.871 12.8561 103.288 13.7909C103.706 14.7258 103.921 15.7381 103.921 16.7618C103.921 17.7855 103.706 18.7978 103.288 19.7326C102.871 20.6675 102.262 21.504 101.5 22.1878C100.738 22.8715 99.8406 23.3871 98.8662 23.701C97.8918 24.0149 96.8622 24.1201 95.8444 24.0097H95.4678V28.8699H93.0376V9.51391ZM95.4678 11.944V21.5552H95.8444C96.5308 21.6466 97.2288 21.5903 97.8917 21.39C98.5545 21.1898 99.1669 20.8502 99.6879 20.394C100.209 19.9378 100.626 19.3756 100.912 18.745C101.198 18.1144 101.346 17.4299 101.346 16.7375C101.346 16.045 101.198 15.3606 100.912 14.73C100.626 14.0994 100.209 13.5371 99.6879 13.081C99.1669 12.6248 98.5545 12.2852 97.8917 12.0849C97.2288 11.8847 96.5308 11.8283 95.8444 11.9197C95.7121 11.9335 95.5817 11.9621 95.4556 12.0048L95.4678 11.944ZM112.977 10.9112L111.179 12.3329C110.868 12.0087 110.472 11.7798 110.036 11.6731C109.6 11.5664 109.143 11.5863 108.718 11.7305C108.293 11.8747 107.918 12.1372 107.637 12.4871C107.356 12.837 107.181 13.2598 107.132 13.7059V13.9003C107.132 14.9696 107.874 15.6865 109.32 15.7837C114.885 16.1239 117.436 18.7363 117.436 22.1871V22.4058C117.293 23.7715 116.76 25.0673 115.901 26.1389C115.042 27.2106 113.893 28.013 112.592 28.4507C111.29 28.8885 109.89 28.9431 108.558 28.6081C107.226 28.2732 106.019 27.5627 105.079 26.5613L106.938 25.1275C107.371 25.5913 107.899 25.9554 108.487 26.1945C109.074 26.4337 109.707 26.5423 110.34 26.5127C111.51 26.5744 112.659 26.1816 113.547 25.4163C114.434 24.651 114.992 23.5724 115.103 22.4058V22.2357C115.103 18.9914 111.92 18.3961 109.162 18.1287C106.61 17.8857 104.775 16.294 104.775 13.9975V13.9003C104.865 12.7047 105.411 11.5893 106.299 10.7843C107.188 9.9794 108.352 9.54637 109.55 9.57467C110.186 9.55591 110.818 9.67058 111.406 9.91127C111.994 10.152 112.525 10.5133 112.965 10.972L112.977 10.9112ZM126.95 26.3669C129.976 26.3669 132.369 23.0984 132.369 19.0765V9.35595H134.799V19.0765C134.799 24.4228 131.3 28.7363 126.999 28.7363C122.697 28.7363 119.198 24.4228 119.198 19.0765V9.35595H121.628V19.0765C121.531 23.1591 123.925 26.4276 126.938 26.4276L126.95 26.3669ZM153.451 28.797H151.021V16.7679L145.419 24.0583L139.818 16.7679V28.8335H137.388V9.51391L145.407 20.0728L153.426 9.51391L153.451 28.797Z" fill="#B0B0B0"/>
<path d="M13.2199 6.60996C13.2199 4.85689 12.5235 3.17562 11.2839 1.93601C10.0443 0.696404 8.36304 0 6.60996 0C4.85689 0 3.17562 0.696404 1.93601 1.93601C0.696406 3.17562 0 4.85689 0 6.60996V26.5978L5.4435 30.4982V40H7.77643V30.4982L13.2199 26.5978V6.60996ZM10.887 17.7886L7.77643 20.8991V17.983L10.887 14.8724V17.7886ZM2.38153 14.8724L5.4921 17.983V20.8991L2.38153 17.7886V14.8724ZM10.887 11.5674L6.60996 15.8445L2.33293 11.4702V8.55407L6.60996 12.8311L10.887 8.55407V11.5674ZM6.60996 2.33293C7.55061 2.33709 8.46395 2.64949 9.21011 3.22227C9.95626 3.79505 10.4941 4.59664 10.7412 5.50425L6.60996 9.62333L2.47874 5.50425C2.71681 4.58761 3.25076 3.77516 3.99773 3.19296C4.7447 2.61076 5.66293 2.29136 6.60996 2.28432V2.33293ZM2.33293 25.4192V21.045L5.4435 24.1555V27.6306L2.33293 25.4192ZM7.77643 27.6428V24.1555L10.887 21.045V25.407L7.77643 27.6428Z" fill="#B0B0B0"/>
</svg>
