<svg width="158" height="45" viewBox="0 0 158 45" fill="none" xmlns="http://www.w3.org/2000/svg">
<path d="M22.5 0C19.5453 0 16.6194 0.582043 13.8896 1.7127C11.1597 2.84349 8.67947 4.50077 6.59006 6.59006C4.50077 8.67947 2.84349 11.1597 1.7127 13.8896C0.582043 16.6194 0 19.5453 0 22.5C0 25.4547 0.582043 28.3806 1.7127 31.1104C2.84349 33.8403 4.50077 36.3205 6.59006 38.4099C8.67947 40.4992 11.1597 42.1565 13.8896 43.2873C16.6194 44.418 19.5453 45 22.5 45V33.75C21.0226 33.75 19.5597 33.459 18.1948 32.8936C16.8299 32.3283 15.5897 31.4996 14.545 30.455C13.5004 29.4103 12.6717 28.1701 12.1064 26.8052C11.541 25.4403 11.25 23.9774 11.25 22.5C11.25 21.0226 11.541 19.5597 12.1064 18.1948C12.6717 16.8299 13.5004 15.5897 14.545 14.545C15.5897 13.5004 16.8299 12.6717 18.1948 12.1064C19.5597 11.541 21.0226 11.25 22.5 11.25V0Z" fill="#B0B0B0"/>
<path d="M22.5001 30C26.6423 30 30.0001 26.6421 30.0001 22.5C30.0001 18.3579 26.6423 15 22.5001 15C18.358 15 15.0001 18.3579 15.0001 22.5C15.0001 26.6421 18.358 30 22.5001 30Z" fill="#B0B0B0"/>
<path d="M0 22.5C0 25.4547 0.582043 28.3806 1.7127 31.1104C2.84349 33.8403 4.50077 36.3205 6.59006 38.4099C8.67947 40.4992 11.1597 42.1565 13.8896 43.2873C16.6194 44.418 19.5453 45 22.5 45C25.4547 45 28.3806 44.418 31.1104 43.2873C33.8403 42.1565 36.3205 40.4992 38.4099 38.4099C40.4992 36.3205 42.1565 33.8403 43.2873 31.1104C44.418 28.3806 45 25.4547 45 22.5H33.75C33.75 23.9774 33.459 25.4403 32.8936 26.8052C32.3283 28.1701 31.4996 29.4103 30.455 30.455C29.4103 31.4996 28.1701 32.3283 26.8052 32.8936C25.4403 33.459 23.9774 33.75 22.5 33.75C21.0226 33.75 19.5597 33.459 18.1948 32.8936C16.8299 32.3283 15.5897 31.4996 14.545 30.455C13.5004 29.4103 12.6717 28.1701 12.1064 26.8052C11.541 25.4403 11.25 23.9774 11.25 22.5H0Z" fill="#B0B0B0"/>
<path d="M30.0001 22.5C30.0001 20.5109 29.2099 18.6033 27.8034 17.1967C26.3969 15.7901 24.4893 15 22.5001 15C20.511 15 18.6034 15.7901 17.1968 17.1967C15.7902 18.6033 15.0001 20.5109 15.0001 22.5H30.0001Z" fill="#B0B0B0"/>
<path d="M56.7509 14.0464H53.9564V29.5714H56.7509V14.0464Z" fill="#B0B0B0"/>
<path d="M58.5757 24.0711C58.5757 27.6641 61.0597 29.8819 64.3422 29.8819C67.6246 29.8819 70.1086 27.6641 70.1086 24.0711C70.1086 20.4782 67.6246 18.2604 64.3422 18.2604C61.0597 18.2604 58.5757 20.4782 58.5757 24.0711ZM61.3702 24.0711C61.3702 21.942 62.6122 20.7 64.3422 20.7C66.0721 20.7 67.3141 21.942 67.3141 24.0711C67.3141 26.2003 66.0721 27.4423 64.3422 27.4423C62.6122 27.4423 61.3702 26.2003 61.3702 24.0711Z" fill="#B0B0B0"/>
<path d="M80.0949 18.5709V20.0568H79.8731C79.2077 19.1031 78.1431 18.2604 76.2358 18.2604C73.6187 18.2604 71.2678 20.4782 71.2678 23.8937C71.2678 27.3092 73.6187 29.5271 76.2358 29.5271C78.1431 29.5271 79.2077 28.662 79.8287 27.7971H80.0505V28.8617C80.0505 30.9909 78.8085 31.9667 76.9899 31.9667C75.1712 31.9667 74.2397 30.9909 73.8626 29.7266L71.3565 30.8134C71.9331 32.4768 73.6187 34.3176 77.0342 34.3176C80.5384 34.3176 82.845 32.4768 82.845 28.9282V18.5709H80.0949ZM77.0786 27.1318C75.3486 27.1318 74.0623 25.8898 74.0623 23.8937C74.0623 21.8976 75.3486 20.6556 77.0786 20.6556C78.8085 20.6556 80.0949 21.8976 80.0949 23.8937C80.0949 25.8898 78.8085 27.1318 77.0786 27.1318Z" fill="#B0B0B0"/>
<path d="M84.6528 24.0711C84.6528 27.6641 87.1368 29.8819 90.4193 29.8819C93.7017 29.8819 96.1856 27.6641 96.1856 24.0711C96.1856 20.4782 93.7017 18.2604 90.4193 18.2604C87.1368 18.2604 84.6528 20.4782 84.6528 24.0711ZM87.4473 24.0711C87.4473 21.942 88.6893 20.7 90.4193 20.7C92.1492 20.7 93.3912 21.942 93.3912 24.0711C93.3912 26.2003 92.1492 27.4423 90.4193 27.4423C88.6893 27.4423 87.4473 26.2003 87.4473 24.0711Z" fill="#B0B0B0"/>
<path d="M98.379 15.3771C98.379 16.5083 99.2443 17.2845 100.354 17.2845C101.462 17.2845 102.327 16.5083 102.327 15.3771C102.327 14.2461 101.462 13.4698 100.354 13.4698C99.2443 13.4698 98.379 14.2461 98.379 15.3771ZM101.75 18.5709H98.9563V29.5714H101.75V18.5709Z" fill="#B0B0B0"/>
<path d="M104.241 34.0071H107.036V28.152H107.257C107.878 29.0391 108.942 29.8819 110.85 29.8819C113.467 29.8819 115.818 27.6641 115.818 24.0711C115.818 20.4782 113.467 18.2604 110.85 18.2604C108.942 18.2604 107.878 19.1031 107.213 20.0569H106.991V18.5709H104.241V34.0071ZM110.007 27.4866C108.278 27.4866 106.991 26.2446 106.991 24.0711C106.991 21.8976 108.278 20.6556 110.007 20.6556C111.738 20.6556 113.023 21.8976 113.023 24.0711C113.023 26.2446 111.738 27.4866 110.007 27.4866Z" fill="#B0B0B0"/>
<path d="M117.449 21.6537C117.449 23.8272 119.267 24.6257 121.573 25.0692L122.151 25.1801C123.525 25.4462 124.146 25.779 124.146 26.4887C124.146 27.1984 123.525 27.7528 122.239 27.7528C120.952 27.7528 119.911 27.2205 119.622 25.6236L117.049 26.289C117.427 28.5956 119.355 29.8819 122.239 29.8819C125.033 29.8819 126.852 28.5735 126.852 26.2669C126.852 23.9602 124.989 23.3393 122.505 22.8514L121.928 22.7404C120.775 22.5186 120.154 22.2081 120.154 21.4763C120.154 20.811 120.731 20.3895 121.796 20.3895C122.86 20.3895 123.614 20.8331 123.88 22.0307L126.409 21.2545C125.877 19.4802 124.258 18.2604 121.796 18.2604C119.178 18.2604 117.449 19.4802 117.449 21.6537Z" fill="#B0B0B0"/>
<path d="M139.405 29.5714V18.5709H136.611V24.2486C136.611 26.289 135.613 27.4866 133.905 27.4866C132.396 27.4866 131.554 26.6661 131.554 25.0026V18.5709H128.759V25.1357C128.759 27.8637 130.468 29.7489 133.041 29.7489C135.058 29.7489 135.99 28.8617 136.434 27.9302H136.655V29.5714H139.405Z" fill="#B0B0B0"/>
<path d="M141.884 18.5709V29.5714H144.679V23.0066C144.679 21.4984 145.389 20.6556 146.674 20.6556C147.784 20.6556 148.449 21.2766 148.449 22.4743V29.5714H151.244V23.0066C151.244 21.4984 151.953 20.6556 153.239 20.6556C154.349 20.6556 155.013 21.2766 155.013 22.4743V29.5714H157.809V22.3412C157.809 19.6798 156.167 18.3934 154.126 18.3934C152.33 18.3934 151.51 19.1919 150.978 20.1234H150.755C150.245 19.081 149.336 18.3934 147.739 18.3934C146.142 18.3934 145.277 19.1031 144.856 19.9459H144.634V18.5709H141.884Z" fill="#B0B0B0"/>
</svg>
