<svg width="172" height="40" viewBox="0 0 172 40" fill="none" xmlns="http://www.w3.org/2000/svg">
<path d="M48.7332 12.2281H53.0797V29.8311H48.7332V12.2281ZM54.813 23.2097C54.813 18.8496 57.5211 16.2362 61.5833 16.2362C65.6455 16.2362 68.3537 18.8496 68.3537 23.2097C68.3537 27.5698 65.7403 30.2102 61.5833 30.2102C57.4263 30.2102 54.813 27.6646 54.813 23.2097ZM64.0477 23.2097C64.0477 20.813 63.1134 19.4047 61.6239 19.4047C60.1345 19.4047 59.2137 20.7588 59.2137 23.2097C59.2137 25.6606 60.1345 27.0011 61.6239 27.0011C63.1134 27.0011 64.0748 25.6606 64.0748 23.2232L64.0477 23.2097ZM70.0869 30.7383H74.2845C74.4756 31.1903 74.8094 31.5672 75.2348 31.8117C75.6602 32.0562 76.1539 32.1548 76.6406 32.0924C78.3061 32.0924 79.1727 31.1987 79.1727 29.8717V27.4344H79.1863C78.8276 28.1933 78.2476 28.8259 77.5225 29.2489C76.7974 29.6718 75.9613 29.8654 75.1241 29.804C71.942 29.804 69.8296 27.3802 69.8296 23.2097C69.8296 19.0391 71.8472 16.4393 75.2459 16.4393C76.1046 16.3934 76.9563 16.6148 77.6839 17.0732C78.4114 17.5315 78.9789 18.2042 79.3082 18.9985H79.1863V16.5476H83.4922V29.7363C83.4922 32.9184 80.6758 34.9089 76.5323 34.9089C72.768 34.8953 70.3577 33.1757 70.114 30.7519L70.0869 30.7383ZM79.1863 23.2097C79.1863 21.0838 78.2114 19.7432 76.6677 19.7432C75.1241 19.7432 74.1762 21.0973 74.1762 23.2097C74.1762 25.322 75.1105 26.5678 76.6677 26.5678C78.2249 26.5678 79.1863 25.4168 79.1863 23.2097ZM85.2119 23.2097C85.2119 18.8496 87.9201 16.2362 91.9823 16.2362C96.0445 16.2362 98.7527 18.8496 98.7527 23.2097C98.7527 27.5698 96.1258 30.2102 91.9823 30.2102C87.8388 30.2102 85.239 27.6646 85.239 23.2097H85.2119ZM94.4467 23.2097C94.4467 20.813 93.4989 19.4047 92.0229 19.4047C90.547 19.4047 89.6127 20.7588 89.6127 23.2097C89.6127 25.6606 90.5334 27.0011 92.0229 27.0011C93.5124 27.0011 94.4738 25.6606 94.4738 23.2232L94.4467 23.2097ZM100.513 13.3385C100.494 12.8957 100.608 12.4574 100.84 12.08C101.072 11.7025 101.412 11.4032 101.816 11.2205C102.22 11.0378 102.669 10.9801 103.106 11.0548C103.543 11.1294 103.947 11.3331 104.267 11.6396C104.587 11.946 104.809 12.3413 104.902 12.7744C104.996 13.2076 104.958 13.6588 104.793 14.0702C104.628 14.4815 104.344 14.8341 103.977 15.0825C103.61 15.331 103.177 15.464 102.734 15.4644C102.45 15.4716 102.169 15.4224 101.905 15.3198C101.64 15.2172 101.399 15.0632 101.195 14.8667C100.991 14.6702 100.828 14.4351 100.716 14.1751C100.603 13.9151 100.544 13.6353 100.54 13.352L100.513 13.3385ZM100.513 16.5341H104.914V29.8853H100.581L100.513 16.5341ZM120.743 23.2097C120.743 27.5563 118.793 30.0748 115.475 30.0748C114.626 30.1272 113.781 29.9177 113.055 29.4746C112.328 29.0314 111.755 28.376 111.413 27.5969H111.332V34.1777H106.985V16.5747H111.305V18.9579H111.386C111.717 18.1634 112.284 17.4901 113.011 17.0297C113.738 16.5693 114.589 16.3442 115.448 16.3851C118.861 16.3581 120.824 18.8631 120.824 23.2232L120.743 23.2097ZM116.315 23.2097C116.315 21.0973 115.327 19.7297 113.796 19.7297C112.266 19.7297 111.305 21.0838 111.291 23.2097C111.278 25.3356 112.266 26.6761 113.796 26.6761C115.327 26.6761 116.396 25.4168 116.396 23.2232L116.315 23.2097ZM128.163 16.2227C131.806 16.2227 134.067 17.9423 134.094 20.7046H130.127C130.127 19.7432 129.328 19.1475 128.136 19.1475C126.944 19.1475 126.376 19.6078 126.376 20.2984C126.376 20.989 126.877 21.2056 127.879 21.4088L130.668 21.9775C133.376 22.5462 134.46 23.6294 134.46 25.647C134.46 28.3552 131.955 30.1967 128.231 30.1967C124.507 30.1967 122.083 28.4093 121.907 25.6876H126.119C126.24 26.6761 127.026 27.2584 128.299 27.2584C129.571 27.2584 130.167 26.8521 130.167 26.1345C130.167 25.4168 129.761 25.295 128.718 25.0783L126.2 24.5502C123.586 23.995 122.219 22.6274 122.219 20.5828C122.3 17.9288 124.575 16.2362 128.244 16.2362L128.163 16.2227ZM149.016 29.8717H144.805V27.3667H144.723C144.488 28.2022 143.974 28.9325 143.268 29.4371C142.561 29.9417 141.704 30.1905 140.837 30.1425C140.183 30.1638 139.531 30.0465 138.925 29.7983C138.319 29.55 137.773 29.1764 137.321 28.702C136.87 28.2276 136.524 27.6632 136.306 27.0456C136.088 26.4281 136.004 25.7715 136.057 25.1189V16.5476H140.404V24.1846C140.404 25.7553 141.23 26.6084 142.584 26.6084C142.902 26.606 143.215 26.5355 143.503 26.4016C143.791 26.2677 144.047 26.0735 144.254 25.8322C144.461 25.5909 144.613 25.3081 144.701 25.0029C144.789 24.6976 144.811 24.377 144.764 24.0627V16.5476H149.097L149.016 29.8717ZM151.115 16.5341H155.339V19.1068H155.434C155.668 18.2827 156.168 17.5592 156.856 17.0495C157.545 16.5399 158.383 16.2729 159.239 16.2904C160.099 16.2156 160.956 16.4642 161.642 16.9876C162.328 17.511 162.794 18.2715 162.949 19.1204H163.139C163.409 18.2669 163.954 17.5268 164.689 17.015C165.424 16.5032 166.307 16.2485 167.201 16.2904C167.796 16.2677 168.388 16.3709 168.94 16.5931C169.492 16.8153 169.99 17.1515 170.403 17.5797C170.816 18.0079 171.134 18.5184 171.336 19.078C171.538 19.6375 171.619 20.2333 171.575 20.8265V29.8853H167.201V21.9368C167.201 20.5828 166.565 19.8245 165.332 19.8245C165.059 19.82 164.788 19.8747 164.538 19.9847C164.288 20.0948 164.064 20.2577 163.883 20.4622C163.702 20.6667 163.567 20.908 163.487 21.1695C163.408 21.4311 163.386 21.7067 163.423 21.9775V29.8853H159.28V21.8962C159.28 20.5422 158.616 19.8245 157.425 19.8245C157.149 19.8223 156.875 19.8792 156.623 19.9914C156.37 20.1036 156.145 20.2684 155.962 20.4749C155.778 20.6814 155.641 20.9247 155.559 21.1885C155.478 21.4523 155.454 21.7306 155.488 22.0046V29.8853H151.142L151.115 16.5341Z" fill="#B0B0B0"/>
<path d="M40.1348 13.3789C40.1349 10.6839 39.3211 8.05165 37.7999 5.82698C36.2787 3.60232 34.1211 1.88895 31.6096 0.911298C29.0982 -0.0663508 26.35 -0.262694 23.7251 0.347982C21.1002 0.958659 18.7209 2.34788 16.8988 4.33369H0V40H35.6799V23.3313C37.0803 22.0788 38.2008 20.545 38.9685 18.8301C39.7361 17.1152 40.1335 15.2578 40.1348 13.3789ZM33.2696 13.3789C33.2723 14.6703 32.8918 15.9335 32.1763 17.0086C31.4607 18.0837 30.4423 18.9223 29.25 19.4184C28.0577 19.9144 26.7449 20.0456 25.478 19.7953C24.2111 19.545 23.0469 18.9245 22.1327 18.0123C21.2186 17.1 20.5957 15.9371 20.3427 14.6707C20.0898 13.4043 20.2183 12.0913 20.7119 10.8979C21.2054 9.70457 22.042 8.68445 23.1156 7.96669C24.1891 7.24893 25.4515 6.86581 26.743 6.86581C28.4716 6.8658 30.1296 7.55157 31.3532 8.77262C32.5768 9.99368 33.266 11.6503 33.2696 13.3789ZM28.8147 33.1348H6.86516V11.1988H13.5543C13.4251 11.9185 13.3571 12.6478 13.3512 13.3789C13.3548 16.9295 14.7668 20.3337 17.2775 22.8444C19.7882 25.355 23.1923 26.7671 26.743 26.7707C27.4371 26.767 28.1299 26.7082 28.8147 26.5947V33.1348Z" fill="#B0B0B0"/>
</svg>
