<svg width="179" height="35" viewBox="0 0 179 35" fill="none" xmlns="http://www.w3.org/2000/svg">
<path d="M26.7084 15.3604C26.211 15.8609 25.8301 16.4649 25.5928 17.1294C25.3555 17.7939 25.2677 18.5025 25.3355 19.2048L25.3119 19.1812C25.3817 20.0079 25.2702 20.8399 24.9853 21.619C24.7004 22.3982 24.2488 23.1058 23.6622 23.6925C23.0755 24.2791 22.3679 24.7306 21.5887 25.0156C20.8096 25.3005 19.9776 25.412 19.1509 25.3422L19.1745 25.3658C18.1857 25.2738 17.1925 25.489 16.3304 25.9821C15.4682 26.4752 14.7792 27.2222 14.3572 28.1212C13.9352 29.0203 13.8007 30.0276 13.9722 31.0058C14.1436 31.9841 14.6126 32.8857 15.3152 33.5876C16.0178 34.2896 16.9197 34.7577 17.8982 34.9283C18.8766 35.0988 19.8838 34.9635 20.7824 34.5406C21.6811 34.1178 22.4274 33.4281 22.9198 32.5655C23.4121 31.703 23.6264 30.7096 23.5334 29.7208L23.5584 29.7444C23.4886 28.9177 23.6001 28.0858 23.885 27.3066C24.17 26.5274 24.6215 25.8198 25.2081 25.2332C25.7948 24.6465 26.5024 24.195 27.2815 23.9101C28.0607 23.6251 28.8927 23.5136 29.7194 23.5834L29.6944 23.5598C30.5022 23.6324 31.3153 23.5 32.0583 23.1747C32.8013 22.8495 33.4501 22.342 33.9447 21.6992C34.4393 21.0564 34.7636 20.2991 34.8876 19.4976C35.0117 18.6961 34.9313 17.8762 34.6541 17.114C34.3769 16.3518 33.9118 15.6719 33.3018 15.1374C32.6919 14.6028 31.9569 14.2308 31.1649 14.0559C30.3729 13.8811 29.5496 13.9089 28.7713 14.137C27.9929 14.365 27.2848 14.7858 26.7124 15.3604H26.7084Z" fill="#B0B0B0"/>
<path d="M17.0259 22.2709L17.001 22.2473C17.7036 22.3181 18.4132 22.2318 19.0784 21.9948C19.7437 21.7578 20.3479 21.3759 20.8474 20.8767C21.347 20.3775 21.7293 19.7736 21.9669 19.1085C22.2044 18.4435 22.2912 17.734 22.2209 17.0313L22.2459 17.0549C22.1761 16.2282 22.2875 15.3963 22.5725 14.6171C22.8574 13.8379 23.309 13.1303 23.8956 12.5437C24.4823 11.957 25.1899 11.5055 25.969 11.2206C26.7482 10.9356 27.5802 10.8241 28.4069 10.8939L28.3819 10.8703C29.3709 10.9632 30.3644 10.7487 31.227 10.2562C32.0896 9.76363 32.7793 9.01699 33.2019 8.11808C33.6246 7.21917 33.7597 6.21177 33.5887 5.23327C33.4178 4.25477 32.9492 3.35283 32.2468 2.65045C31.5444 1.94807 30.6425 1.47946 29.664 1.30853C28.6855 1.1376 27.6781 1.27267 26.7792 1.69533C25.8803 2.11799 25.1336 2.80765 24.6411 3.67025C24.1485 4.53284 23.9341 5.52638 24.027 6.51534L24.0033 6.4904C24.0733 7.31715 23.962 8.14922 23.6772 8.92849C23.3923 9.70777 22.9408 10.4155 22.3541 11.0022C21.7674 11.5888 21.0597 12.0404 20.2804 12.3253C19.5011 12.6101 18.6691 12.7214 17.8423 12.6514L17.866 12.6763C17.1633 12.6055 16.4537 12.6918 15.7885 12.9288C15.1233 13.1658 14.5191 13.5478 14.0195 14.0469C13.52 14.5461 13.1376 15.15 12.9001 15.8151C12.6626 16.4801 12.5758 17.1896 12.646 17.8923L12.6224 17.8687C12.692 18.6953 12.5803 19.5272 12.2953 20.3063C12.0103 21.0853 11.5587 21.7928 10.9722 22.3794C10.3856 22.966 9.67806 23.4176 8.899 23.7026C8.11994 23.9876 7.28807 24.0992 6.46143 24.0297L6.48505 24.0533C5.49609 23.9604 4.50255 24.1749 3.63995 24.6674C2.77736 25.16 2.08769 25.9066 1.66504 26.8055C1.24238 27.7044 1.1073 28.7118 1.27823 29.6903C1.44916 30.6688 1.91778 31.5708 2.62016 32.2732C3.32253 32.9755 4.22448 33.4442 5.20298 33.6151C6.18148 33.786 7.18888 33.6509 8.08779 33.2283C8.9867 32.8056 9.73334 32.116 10.2259 31.2534C10.7184 30.3908 10.9329 29.3972 10.84 28.4083L10.8649 28.4319C10.7952 27.6052 10.9066 26.7732 11.1916 25.9941C11.4765 25.2149 11.9281 24.5073 12.5147 23.9207C13.1013 23.334 13.8089 22.8825 14.5881 22.5975C15.3673 22.3126 16.1992 22.2011 17.0259 22.2709Z" fill="#B0B0B0"/>
<path d="M8.2294 19.6367C8.72687 19.1363 9.10775 18.5323 9.34485 17.8678C9.58194 17.2032 9.6694 16.4945 9.60099 15.7923L9.62593 15.8159C9.55609 14.989 9.66761 14.1568 9.9527 13.3774C10.2378 12.598 10.6896 11.8903 11.2765 11.3036C11.8635 10.7169 12.5714 10.2654 13.3509 9.98064C14.1304 9.69588 14.9626 9.58471 15.7895 9.6549L15.7646 9.63128C16.7532 9.72389 17.7464 9.50931 18.6086 9.01681C19.4708 8.5243 20.1601 7.77783 20.5825 6.87921C21.0049 5.98058 21.1398 4.97354 20.9689 3.99541C20.798 3.01728 20.3295 2.11568 19.6274 1.41355C18.9253 0.71143 18.0236 0.242964 17.0455 0.0720423C16.0674 -0.0988798 15.0603 0.036062 14.1617 0.458464C13.2631 0.880866 12.5166 1.57016 12.0241 2.43236C11.5316 3.29456 11.317 4.28769 11.4096 5.27632L11.386 5.25269C11.4558 6.07938 11.3443 6.91135 11.0594 7.69052C10.7745 8.46969 10.3229 9.17729 9.73627 9.76393C9.14963 10.3506 8.44203 10.8021 7.66286 11.0871C6.88369 11.372 6.05172 11.4835 5.22503 11.4137L5.24865 11.4373C4.44089 11.3649 3.6279 11.4975 2.88504 11.8229C2.14217 12.1483 1.49346 12.6559 0.999023 13.2988C0.504581 13.9417 0.180404 14.6989 0.0565338 15.5004C-0.0673363 16.3019 0.0131072 17.1217 0.290411 17.8838C0.567714 18.6459 1.03291 19.3257 1.64288 19.8602C2.25285 20.3947 2.98786 20.7666 3.77981 20.9414C4.57176 21.1162 5.39501 21.0882 6.17329 20.8602C6.95157 20.6321 7.65968 20.2113 8.23202 19.6367H8.2294Z" fill="#B0B0B0"/>
<path d="M48.8875 6.54553H52.7857V25.5155H48.8875V6.54553Z" fill="#B0B0B0"/>
<path d="M54.9934 19.0198C54.9879 17.6565 55.3872 16.3223 56.1406 15.1862C56.894 14.05 57.9677 13.163 59.2256 12.6376C60.4835 12.1121 61.869 11.9718 63.2068 12.2344C64.5445 12.497 65.7742 13.1507 66.7401 14.1127C67.706 15.0748 68.3646 16.3018 68.6326 17.6385C68.9006 18.9751 68.7658 20.3613 68.2454 21.6213C67.725 22.8813 66.8423 23.9585 65.7092 24.7164C64.576 25.4744 63.2435 25.879 61.8802 25.879C60.9753 25.8893 60.0774 25.7192 59.239 25.3785C58.4006 25.0378 57.6385 24.5333 56.9973 23.8947C56.3561 23.2561 55.8486 22.496 55.5045 21.659C55.1605 20.822 54.9867 19.9247 54.9934 19.0198ZM64.8688 19.0198C64.8526 18.4322 64.6634 17.8624 64.3251 17.3817C63.9868 16.9009 63.5143 16.5306 62.9666 16.317C62.419 16.1033 61.8205 16.0559 61.2461 16.1805C60.6716 16.3052 60.1466 16.5964 59.7367 17.0178C59.3269 17.4391 59.0503 17.972 58.9416 18.5497C58.8329 19.1274 58.897 19.7243 59.1257 20.2659C59.3544 20.8074 59.7377 21.2694 60.2276 21.5943C60.7175 21.9192 61.2924 22.0924 61.8802 22.0924C62.2828 22.1031 62.6832 22.0304 63.0563 21.8786C63.4293 21.7269 63.7669 21.4995 64.0477 21.2109C64.3285 20.9222 64.5464 20.5784 64.6877 20.2013C64.8291 19.8242 64.8907 19.4219 64.8688 19.0198Z" fill="#B0B0B0"/>
<path d="M84.3034 12.5228V24.8605C84.3034 29.226 80.8987 31.0714 77.4428 31.0714C76.226 31.1624 75.0077 30.9167 73.9213 30.361C72.835 29.8053 71.9227 28.9613 71.2844 27.9213L74.6104 25.9985C74.8787 26.5406 75.3061 26.9878 75.8355 27.2803C76.3649 27.5728 76.971 27.6966 77.5727 27.6352C77.9573 27.6885 78.3489 27.6546 78.7187 27.5361C79.0884 27.4176 79.4267 27.2175 79.7086 26.9506C79.9905 26.6836 80.2088 26.3567 80.3474 25.994C80.4859 25.6314 80.5411 25.2422 80.5089 24.8553V23.6674C80.0524 24.226 79.4714 24.6697 78.8124 24.9631C78.1534 25.2564 77.4348 25.3912 76.7144 25.3566C74.9999 25.3026 73.3738 24.5835 72.1802 23.3517C70.9866 22.1198 70.3192 20.4719 70.3192 18.7566C70.3192 17.0413 70.9866 15.3934 72.1802 14.1615C73.3738 12.9297 74.9999 12.2106 76.7144 12.1566C77.4348 12.122 78.1534 12.2568 78.8124 12.5502C79.4714 12.8435 80.0524 13.2873 80.5089 13.8458V12.5201L84.3034 12.5228ZM80.5102 18.7586C80.5364 18.1303 80.374 17.5087 80.0439 16.9735C79.7137 16.4384 79.231 16.0142 78.6578 15.7558C78.0846 15.4973 77.4472 15.4162 76.8276 15.5231C76.2079 15.6299 75.6345 15.9198 75.1809 16.3553C74.7274 16.7908 74.4146 17.3521 74.2828 17.9669C74.151 18.5817 74.2062 19.2219 74.4412 19.8051C74.6763 20.3883 75.0806 20.8877 75.6019 21.2392C76.1233 21.5907 76.7379 21.7781 77.3667 21.7774C77.7763 21.806 78.1873 21.7485 78.5733 21.6085C78.9593 21.4686 79.3117 21.2494 79.6078 20.965C79.904 20.6806 80.1373 20.3374 80.2927 19.9574C80.4481 19.5773 80.5222 19.169 80.5102 18.7586Z" fill="#B0B0B0"/>
<path d="M86.511 19.0198C86.5056 17.6565 86.9048 16.3223 87.6583 15.1862C88.4117 14.05 89.4853 13.163 90.7432 12.6376C92.0011 12.1121 93.3867 11.9718 94.7244 12.2344C96.0622 12.497 97.2919 13.1507 98.2578 14.1127C99.2237 15.0748 99.8823 16.3018 100.15 17.6385C100.418 18.9751 100.283 20.3613 99.7631 21.6213C99.2426 22.8813 98.3599 23.9585 97.2268 24.7164C96.0937 25.4744 94.7611 25.879 93.3979 25.879C92.4929 25.8893 91.595 25.7192 90.7566 25.3785C89.9182 25.0378 89.1561 24.5333 88.5149 23.8947C87.8737 23.2561 87.3663 22.496 87.0222 21.659C86.6781 20.822 86.5044 19.9247 86.511 19.0198ZM96.3865 19.0198C96.3702 18.4322 96.1811 17.8624 95.8428 17.3817C95.5045 16.9009 95.0319 16.5306 94.4843 16.317C93.9367 16.1033 93.3382 16.0559 92.7637 16.1805C92.1892 16.3052 91.6643 16.5964 91.2544 17.0178C90.8445 17.4391 90.568 17.972 90.4593 18.5497C90.3506 19.1274 90.4146 19.7243 90.6434 20.2659C90.8721 20.8074 91.2554 21.2694 91.7453 21.5943C92.2352 21.9192 92.81 22.0924 93.3979 22.0924C93.8004 22.1031 94.2009 22.0304 94.5739 21.8786C94.947 21.7269 95.2846 21.4995 95.5653 21.2109C95.8461 20.9222 96.0641 20.5784 96.2054 20.2013C96.3467 19.8242 96.4084 19.4219 96.3865 19.0198Z" fill="#B0B0B0"/>
<path d="M102.103 9.04064C102.103 8.57805 102.24 8.12584 102.497 7.74121C102.754 7.35658 103.119 7.05679 103.546 6.87976C103.974 6.70273 104.444 6.65641 104.898 6.74666C105.351 6.83691 105.768 7.05967 106.095 7.38678C106.422 7.71388 106.645 8.13063 106.735 8.58434C106.826 9.03805 106.779 9.50833 106.602 9.93571C106.425 10.3631 106.126 10.7284 105.741 10.9854C105.356 11.2424 104.904 11.3796 104.441 11.3796C103.823 11.3734 103.232 11.125 102.794 10.6877C102.357 10.2504 102.109 9.65906 102.103 9.04064ZM102.496 12.5228H106.396V25.5168H102.491L102.496 12.5228Z" fill="#B0B0B0"/>
<path d="M123.228 19.0198C123.273 19.8785 123.148 20.7377 122.859 21.548C122.571 22.3582 122.126 23.1034 121.549 23.7409C120.971 24.3783 120.274 24.8954 119.496 25.2624C118.718 25.6293 117.876 25.8389 117.017 25.879C116.294 25.9184 115.572 25.7966 114.903 25.5224C114.233 25.2481 113.633 24.8284 113.146 24.2935V30.7131H109.248V12.5228H113.146V13.7434C113.634 13.2089 114.234 12.7895 114.903 12.5155C115.573 12.2415 116.294 12.1198 117.017 12.1592C117.876 12.1992 118.719 12.4087 119.497 12.7757C120.275 13.1426 120.972 13.6598 121.549 14.2974C122.127 14.9351 122.572 15.6806 122.86 16.491C123.148 17.3015 123.273 18.1609 123.228 19.0198ZM119.329 19.0198C119.314 18.4116 119.12 17.8215 118.771 17.3233C118.422 16.825 117.934 16.4407 117.368 16.2185C116.801 15.9964 116.182 15.9461 115.587 16.0742C114.993 16.2022 114.449 16.5028 114.024 16.9383C113.599 17.3738 113.313 17.9249 113.2 18.5227C113.087 19.1204 113.152 19.7382 113.389 20.2987C113.625 20.8592 114.022 21.3376 114.528 21.6739C115.035 22.0102 115.63 22.1896 116.238 22.1895C116.656 22.2081 117.073 22.1382 117.462 21.9844C117.85 21.8306 118.202 21.5964 118.494 21.2971C118.786 20.9978 119.011 20.6402 119.155 20.2477C119.299 19.8553 119.359 19.4368 119.329 19.0198Z" fill="#B0B0B0"/>
<path d="M135.257 21.6173C135.257 24.6059 132.659 25.879 129.853 25.879C128.719 25.9817 127.581 25.7419 126.585 25.1907C125.589 24.6394 124.781 23.802 124.266 22.7867L127.643 20.8639C127.78 21.3332 128.073 21.7414 128.474 22.0204C128.876 22.2994 129.361 22.4323 129.848 22.3969C130.783 22.3969 131.251 22.1108 131.251 21.5923C131.251 20.1617 124.858 20.9164 124.858 16.421C124.858 13.5872 127.249 12.1592 129.952 12.1592C130.968 12.1271 131.974 12.368 132.865 12.857C133.756 13.3459 134.499 14.065 135.018 14.9391L131.692 16.732C131.546 16.3917 131.303 16.1018 130.994 15.8985C130.684 15.6952 130.322 15.5875 129.952 15.5888C129.276 15.5888 128.86 15.8513 128.86 16.316C128.865 17.7978 135.257 16.8095 135.257 21.6173Z" fill="#B0B0B0"/>
<path d="M149.497 12.5228V25.5168H145.598V24.2948C145.149 24.834 144.578 25.2589 143.932 25.5345C143.286 25.8101 142.584 25.9286 141.884 25.8803C139.259 25.8803 137.028 24.01 137.028 20.499V12.5228H140.926V19.928C140.893 20.2375 140.928 20.5504 141.029 20.8449C141.129 21.1393 141.293 21.4084 141.508 21.6332C141.723 21.8581 141.985 22.0334 142.275 22.1469C142.564 22.2604 142.875 22.3095 143.186 22.2906C144.615 22.2906 145.602 21.4598 145.602 19.6143V12.5267L149.497 12.5228Z" fill="#B0B0B0"/>
<path d="M171.849 17.5379V25.5155H167.951V17.8753C167.951 16.5759 167.327 15.745 166.08 15.745C164.781 15.745 164.052 16.6546 164.052 18.1876V25.5155H160.156V17.8753C160.156 16.5759 159.532 15.745 158.284 15.745C156.984 15.745 156.257 16.6546 156.257 18.1876V25.5155H152.359V12.5215H156.257V13.7159C156.661 13.186 157.192 12.7658 157.8 12.4936C158.408 12.2215 159.075 12.106 159.739 12.1579C160.407 12.1253 161.071 12.266 161.667 12.5664C162.264 12.8668 162.772 13.3167 163.143 13.872C163.575 13.291 164.147 12.829 164.806 12.5293C165.465 12.2295 166.189 12.1017 166.911 12.1579C169.894 12.1592 171.849 14.2894 171.849 17.5379Z" fill="#B0B0B0"/>
<path d="M175.146 12.4427C176.744 12.4427 178.039 11.1476 178.039 9.5499C178.039 7.95225 176.744 6.6571 175.146 6.6571C173.548 6.6571 172.253 7.95225 172.253 9.5499C172.253 11.1476 173.548 12.4427 175.146 12.4427Z" fill="#B0B0B0"/>
</svg>
