<svg width="100" height="100" viewBox="0 0 100 100" fill="none" xmlns="http://www.w3.org/2000/svg">
<mask id="path-1-inside-1_2_902" fill="white">
<path d="M100 50C100 60.559 96.6573 70.8469 90.4508 79.3893C84.2444 87.9316 75.493 94.2899 65.4508 97.5528C55.4087 100.816 44.5913 100.816 34.5491 97.5528C24.507 94.2899 15.7556 87.9316 9.54915 79.3893C3.34275 70.8469 -9.23094e-07 60.559 0 50C9.23094e-07 39.441 3.34275 29.1531 9.54915 20.6107C15.7556 12.0684 24.507 5.71007 34.5492 2.44717C44.5913 -0.815725 55.4087 -0.815724 65.4509 2.44718L59.2705 21.4683C53.2452 19.5106 46.7548 19.5106 40.7295 21.4683C34.7042 23.426 29.4533 27.241 25.7295 32.3664C22.0056 37.4919 20 43.6646 20 50C20 56.3354 22.0056 62.5081 25.7295 67.6336C29.4533 72.759 34.7042 76.574 40.7295 78.5317C46.7548 80.4894 53.2452 80.4894 59.2705 78.5317C65.2958 76.574 70.5467 72.759 74.2705 67.6336C77.9944 62.5081 80 56.3354 80 50L100 50Z"/>
</mask>
<path d="M100 50C100 60.559 96.6573 70.8469 90.4508 79.3893C84.2444 87.9316 75.493 94.2899 65.4508 97.5528C55.4087 100.816 44.5913 100.816 34.5491 97.5528C24.507 94.2899 15.7556 87.9316 9.54915 79.3893C3.34275 70.8469 -9.23094e-07 60.559 0 50C9.23094e-07 39.441 3.34275 29.1531 9.54915 20.6107C15.7556 12.0684 24.507 5.71007 34.5492 2.44717C44.5913 -0.815725 55.4087 -0.815724 65.4509 2.44718L59.2705 21.4683C53.2452 19.5106 46.7548 19.5106 40.7295 21.4683C34.7042 23.426 29.4533 27.241 25.7295 32.3664C22.0056 37.4919 20 43.6646 20 50C20 56.3354 22.0056 62.5081 25.7295 67.6336C29.4533 72.759 34.7042 76.574 40.7295 78.5317C46.7548 80.4894 53.2452 80.4894 59.2705 78.5317C65.2958 76.574 70.5467 72.759 74.2705 67.6336C77.9944 62.5081 80 56.3354 80 50L100 50Z" stroke="#303030" stroke-width="4" mask="url(#path-1-inside-1_2_902)"/>
</svg>
