<svg width="162" height="162" viewBox="0 0 162 162" fill="none" xmlns="http://www.w3.org/2000/svg">
<mask id="mask0_5_928" style="mask-type:alpha" maskUnits="userSpaceOnUse" x="0" y="0" width="162" height="162">
<path d="M161 81C161 125.183 125.183 161 81 161C36.8172 161 1 125.183 1 81C1 36.8172 36.8172 1 81 1C125.183 1 161 36.8172 161 81Z" fill="#C4C4C4" stroke="black"/>
</mask>
<g mask="url(#mask0_5_928)">
<path d="M267.186 29.9364L89.9176 207.205L90.1534 207.441L267.422 30.1723L267.186 29.9364Z" fill="#303030" stroke="#303030"/>
<path d="M259.717 27.0004L82.4481 204.269L82.6839 204.505L259.953 27.2363L259.717 27.0004Z" fill="#303030" stroke="#303030"/>
<path d="M252.211 24.0644L74.9422 201.333L75.1781 201.569L252.447 24.3002L252.211 24.0644Z" fill="#303030" stroke="#303030"/>
<path d="M244.741 21.1289L67.4725 198.397L67.7084 198.633L244.977 21.3647L244.741 21.1289Z" fill="#303030" stroke="#303030"/>
<path d="M237.254 18.2109L59.9849 195.479L60.2207 195.715L237.489 18.4467L237.254 18.2109Z" fill="#303030" stroke="#303030"/>
<path d="M229.766 15.2929L52.4973 192.562L52.7331 192.797L230.002 15.5287L229.766 15.2929Z" fill="#303030" stroke="#303030"/>
<path d="M222.296 12.3569L45.0276 189.625L45.2635 189.861L222.532 12.5928L222.296 12.3569Z" fill="#303030" stroke="#303030"/>
<path d="M214.809 9.43889L37.5399 186.708L37.7758 186.943L215.044 9.67476L214.809 9.43889Z" fill="#303030" stroke="#303030"/>
<path d="M207.339 6.50285L30.0704 183.771L30.3063 184.007L207.575 6.73873L207.339 6.50285Z" fill="#303030" stroke="#303030"/>
<path d="M199.851 3.58537L22.5826 180.854L22.8185 181.09L200.087 3.82125L199.851 3.58537Z" fill="#303030" stroke="#303030"/>
<path d="M192.382 0.648846L15.113 177.917L15.3489 178.153L192.618 0.884718L192.382 0.648846Z" fill="#303030" stroke="#303030"/>
<path d="M184.894 -2.26863L7.62518 175L7.86106 175.236L185.13 -2.03276L184.894 -2.26863Z" fill="#303030" stroke="#303030"/>
<path d="M177.424 -5.20516L0.155762 172.063L0.391634 172.299L177.66 -4.96929L177.424 -5.20516Z" fill="#303030" stroke="#303030"/>
<path d="M169.937 -8.12264L-7.33209 169.146L-7.09621 169.382L170.172 -7.88676L169.937 -8.12264Z" fill="#303030" stroke="#303030"/>
<path d="M162.431 -11.0587L-14.8379 166.21L-14.602 166.446L162.667 -10.8228L162.431 -11.0587Z" fill="#303030" stroke="#303030"/>
<path d="M154.961 -13.9947L-22.3075 163.274L-22.0716 163.51L155.197 -13.7588L154.961 -13.9947Z" fill="#303030" stroke="#303030"/>
<path d="M147.473 -16.9122L-29.7952 160.356L-29.5593 160.592L147.709 -16.6763L147.473 -16.9122Z" fill="#303030" stroke="#303030"/>
<path d="M140.004 -19.8482L-37.2648 157.42L-37.0289 157.656L140.24 -19.6124L140.004 -19.8482Z" fill="#303030" stroke="#303030"/>
<path d="M132.516 -22.7662L-44.7524 154.502L-44.5165 154.738L132.752 -22.5303L132.516 -22.7662Z" fill="#303030" stroke="#303030"/>
<path d="M125.047 -25.7027L-52.222 151.566L-51.9862 151.802L125.282 -25.4668L125.047 -25.7027Z" fill="#303030" stroke="#303030"/>
<path d="M117.559 -28.6202L-59.7099 148.648L-59.474 148.884L117.795 -28.3843L117.559 -28.6202Z" fill="#303030" stroke="#303030"/>
<path d="M110.089 -31.5567L-67.1794 145.712L-66.9436 145.948L110.325 -31.3208L110.089 -31.5567Z" fill="#303030" stroke="#303030"/>
<path d="M102.601 -34.4747L-74.6672 142.794L-74.4313 143.03L102.837 -34.2388L102.601 -34.4747Z" fill="#303030" stroke="#303030"/>
<path d="M95.1139 -37.3922L-82.1547 139.876L-81.9188 140.112L95.3498 -37.1563L95.1139 -37.3922Z" fill="#303030" stroke="#303030"/>
<path d="M87.6442 -40.3282L-89.6245 136.94L-89.3886 137.176L87.8801 -40.0923L87.6442 -40.3282Z" fill="#303030" stroke="#303030"/>
<path d="M80.1383 -43.2642L-97.1303 134.004L-96.8944 134.24L80.3742 -43.0284L80.1383 -43.2642Z" fill="#303030" stroke="#303030"/>
<path d="M72.6687 -46.2003L-104.6 131.068L-104.364 131.304L72.9045 -45.9644L72.6687 -46.2003Z" fill="#303030" stroke="#303030"/>
</g>
</svg>
