<svg width="210" height="470" viewBox="0 0 210 470" fill="none" xmlns="http://www.w3.org/2000/svg">
<rect width="2.69231" height="2.69084" fill="#202020"/>
<rect x="29.6154" width="2.69231" height="2.69084" fill="#202020"/>
<rect x="59.2308" width="2.69231" height="2.69084" fill="#202020"/>
<rect x="88.8461" width="2.69231" height="2.69084" fill="#202020"/>
<rect x="118.461" width="2.69231" height="2.69084" fill="#202020"/>
<rect x="148.077" width="2.69231" height="2.69084" fill="#202020"/>
<rect x="177.692" width="2.69231" height="2.69084" fill="#202020"/>
<rect x="207.308" width="2.69231" height="2.69084" fill="#202020"/>
<rect y="42.4829" width="2.69231" height="2.69084" fill="#202020"/>
<rect x="29.6154" y="42.4829" width="2.69231" height="2.69084" fill="#202020"/>
<rect x="59.2307" y="42.4829" width="2.69231" height="2.69084" fill="#202020"/>
<rect x="88.8461" y="42.4829" width="2.69231" height="2.69084" fill="#202020"/>
<rect x="118.462" y="42.4829" width="2.69231" height="2.69084" fill="#202020"/>
<rect x="148.077" y="42.4829" width="2.69231" height="2.69084" fill="#202020"/>
<rect x="177.692" y="42.4829" width="2.69231" height="2.69084" fill="#202020"/>
<rect x="207.308" y="42.4829" width="2.69231" height="2.69084" fill="#202020"/>
<rect y="84.9653" width="2.69231" height="2.69084" fill="#202020"/>
<rect x="29.6154" y="84.9653" width="2.69231" height="2.69084" fill="#202020"/>
<rect x="59.2307" y="84.9653" width="2.69231" height="2.69084" fill="#202020"/>
<rect x="88.8461" y="84.9653" width="2.69231" height="2.69084" fill="#202020"/>
<rect x="118.462" y="84.9653" width="2.69231" height="2.69084" fill="#202020"/>
<rect x="148.077" y="84.9653" width="2.69231" height="2.69084" fill="#202020"/>
<rect x="177.692" y="84.9653" width="2.69231" height="2.69084" fill="#202020"/>
<rect x="207.308" y="84.9653" width="2.69231" height="2.69084" fill="#202020"/>
<rect y="127.448" width="2.69231" height="2.69084" fill="#202020"/>
<rect x="29.6154" y="127.448" width="2.69231" height="2.69084" fill="#202020"/>
<rect x="59.2308" y="127.448" width="2.69231" height="2.69084" fill="#202020"/>
<rect x="88.8461" y="127.448" width="2.69231" height="2.69084" fill="#202020"/>
<rect x="118.461" y="127.448" width="2.69231" height="2.69084" fill="#202020"/>
<rect x="148.077" y="127.448" width="2.69231" height="2.69084" fill="#202020"/>
<rect x="177.692" y="127.448" width="2.69231" height="2.69084" fill="#202020"/>
<rect x="207.308" y="127.448" width="2.69231" height="2.69084" fill="#202020"/>
<rect y="169.931" width="2.69231" height="2.69084" fill="#202020"/>
<rect x="29.6154" y="169.931" width="2.69231" height="2.69084" fill="#202020"/>
<rect x="59.2308" y="169.931" width="2.69231" height="2.69084" fill="#202020"/>
<rect x="88.8461" y="169.931" width="2.69231" height="2.69084" fill="#202020"/>
<rect x="118.461" y="169.931" width="2.69231" height="2.69084" fill="#202020"/>
<rect x="148.077" y="169.931" width="2.69231" height="2.69084" fill="#202020"/>
<rect x="177.692" y="169.931" width="2.69231" height="2.69084" fill="#202020"/>
<rect x="207.308" y="169.931" width="2.69231" height="2.69084" fill="#202020"/>
<rect y="212.414" width="2.69231" height="2.69084" fill="#202020"/>
<rect x="29.6154" y="212.414" width="2.69231" height="2.69084" fill="#202020"/>
<rect x="59.2307" y="212.414" width="2.69231" height="2.69084" fill="#202020"/>
<rect x="88.8461" y="212.414" width="2.69231" height="2.69084" fill="#202020"/>
<rect x="118.462" y="212.414" width="2.69231" height="2.69084" fill="#202020"/>
<rect x="148.077" y="212.414" width="2.69231" height="2.69084" fill="#202020"/>
<rect x="177.692" y="212.414" width="2.69231" height="2.69084" fill="#202020"/>
<rect x="207.308" y="212.414" width="2.69231" height="2.69084" fill="#202020"/>
<rect y="254.896" width="2.69231" height="2.69084" fill="#202020"/>
<rect x="29.6154" y="254.896" width="2.69231" height="2.69084" fill="#202020"/>
<rect x="59.2307" y="254.896" width="2.69231" height="2.69084" fill="#202020"/>
<rect x="88.8461" y="254.896" width="2.69231" height="2.69084" fill="#202020"/>
<rect x="118.462" y="254.896" width="2.69231" height="2.69084" fill="#202020"/>
<rect x="148.077" y="254.896" width="2.69231" height="2.69084" fill="#202020"/>
<rect x="177.692" y="254.896" width="2.69231" height="2.69084" fill="#202020"/>
<rect x="207.308" y="254.896" width="2.69231" height="2.69084" fill="#202020"/>
<rect y="297.379" width="2.69231" height="2.69084" fill="#202020"/>
<rect x="29.6154" y="297.379" width="2.69231" height="2.69084" fill="#202020"/>
<rect x="59.2308" y="297.379" width="2.69231" height="2.69084" fill="#202020"/>
<rect x="88.8461" y="297.379" width="2.69231" height="2.69084" fill="#202020"/>
<rect x="118.461" y="297.379" width="2.69231" height="2.69084" fill="#202020"/>
<rect x="148.077" y="297.379" width="2.69231" height="2.69084" fill="#202020"/>
<rect x="177.692" y="297.379" width="2.69231" height="2.69084" fill="#202020"/>
<rect x="207.308" y="297.379" width="2.69231" height="2.69084" fill="#202020"/>
<rect y="339.86" width="2.69231" height="2.69084" fill="#202020"/>
<rect x="29.6154" y="339.86" width="2.69231" height="2.69084" fill="#202020"/>
<rect x="59.2307" y="339.86" width="2.69231" height="2.69084" fill="#202020"/>
<rect x="88.8461" y="339.86" width="2.69231" height="2.69084" fill="#202020"/>
<rect x="118.462" y="339.86" width="2.69231" height="2.69084" fill="#202020"/>
<rect x="148.077" y="339.86" width="2.69231" height="2.69084" fill="#202020"/>
<rect x="177.692" y="339.86" width="2.69231" height="2.69084" fill="#202020"/>
<rect x="207.308" y="339.86" width="2.69231" height="2.69084" fill="#202020"/>
<rect y="382.343" width="2.69231" height="2.69084" fill="#202020"/>
<rect x="29.6154" y="382.343" width="2.69231" height="2.69084" fill="#202020"/>
<rect x="59.2308" y="382.343" width="2.69231" height="2.69084" fill="#202020"/>
<rect x="88.8461" y="382.343" width="2.69231" height="2.69084" fill="#202020"/>
<rect x="118.461" y="382.343" width="2.69231" height="2.69084" fill="#202020"/>
<rect x="148.077" y="382.343" width="2.69231" height="2.69084" fill="#202020"/>
<rect x="177.692" y="382.343" width="2.69231" height="2.69084" fill="#202020"/>
<rect x="207.308" y="382.343" width="2.69231" height="2.69084" fill="#202020"/>
<rect y="424.827" width="2.69231" height="2.69084" fill="#202020"/>
<rect x="29.6154" y="424.827" width="2.69231" height="2.69084" fill="#202020"/>
<rect x="59.2308" y="424.827" width="2.69231" height="2.69084" fill="#202020"/>
<rect x="88.8461" y="424.827" width="2.69231" height="2.69084" fill="#202020"/>
<rect x="118.461" y="424.827" width="2.69231" height="2.69084" fill="#202020"/>
<rect x="148.077" y="424.827" width="2.69231" height="2.69084" fill="#202020"/>
<rect x="177.692" y="424.827" width="2.69231" height="2.69084" fill="#202020"/>
<rect x="207.308" y="424.827" width="2.69231" height="2.69084" fill="#202020"/>
<rect y="467.309" width="2.69231" height="2.69084" fill="#202020"/>
<rect x="29.6154" y="467.309" width="2.69231" height="2.69084" fill="#202020"/>
<rect x="59.2308" y="467.309" width="2.69231" height="2.69084" fill="#202020"/>
<rect x="88.8461" y="467.309" width="2.69231" height="2.69084" fill="#202020"/>
<rect x="118.461" y="467.309" width="2.69231" height="2.69084" fill="#202020"/>
<rect x="148.077" y="467.309" width="2.69231" height="2.69084" fill="#202020"/>
<rect x="177.692" y="467.309" width="2.69231" height="2.69084" fill="#202020"/>
<rect x="207.308" y="467.309" width="2.69231" height="2.69084" fill="#202020"/>
</svg>
