<svg width="38" height="37" viewBox="0 0 38 37" fill="none" xmlns="http://www.w3.org/2000/svg">
<path d="M22.375 16.25C23.0781 16.25 23.7109 16.6016 24.1328 17.1641L28 22.0859L24.8359 25.8125C24.1328 26.5859 22.7969 26.5859 22.0938 25.8125L19.8438 23.2109C19.0703 22.2969 17.9453 21.6641 16.75 21.8047C15.4844 21.8047 14.3594 22.3672 13.6562 23.2812C12.9531 24.125 11.4766 24.125 10.8438 23.2812L9.85938 22.1562L13.7969 17.1641C14.2188 16.6016 14.8516 16.25 15.5547 16.25H22.375ZM12.1797 10.625C9.71875 10.625 7.67969 8.65625 7.67969 6.125C7.67969 3.66406 9.64844 1.625 12.1797 1.625C13.3047 1.625 14.2891 2.04688 15.1328 2.75C15.9062 1.41406 17.3125 0.5 18.9297 0.5C20.6172 0.5 22.0234 1.41406 22.7969 2.75C23.6406 2.04688 24.625 1.625 25.75 1.625C28.2109 1.625 30.25 3.66406 30.25 6.125C30.25 8.65625 28.2109 10.625 25.75 10.625C24.8359 10.625 23.9922 10.4141 23.2188 9.92188L21.1797 14H16.6797L14.5703 9.92188C13.8672 10.4141 13.0234 10.625 12.1797 10.625ZM36.5078 32.9141C37.6328 34.3906 36.5781 36.5 34.75 36.5H3.25C1.35156 36.5 0.296875 34.3906 1.42188 32.9141L8.45312 23.9844L9.01562 24.6875C10.5625 26.6562 13.7969 26.6562 15.4141 24.6875C15.6953 24.2656 16.1875 24.0547 16.75 23.9844H16.8203C17.3125 23.9844 17.8047 24.2656 18.1562 24.6172L20.4062 27.2188C21.1797 28.1328 22.3047 28.625 23.5 28.625C24.625 28.625 25.75 28.1328 26.5234 27.2188L29.4062 23.9141L36.5078 32.9141Z" fill="#0C0C0C"/>
</svg>
