<svg xmlns="http://www.w3.org/2000/svg" xmlns:xlink="http://www.w3.org/1999/xlink" version="1.1" width="100" height="60" viewBox="0 0 940 788" xml:space="preserve">
<desc>Created with Fabric.js 3.5.0</desc>
<defs>
</defs>
<rect x="0" y="0" width="100%" height="100%" fill="rgba(249,249,249,0)"/>
<g transform="matrix(30.3698 0 0 23.215 430.2072 396.2421)" id="883363">
<path style="stroke: none; stroke-width: 1; stroke-dasharray: none; stroke-linecap: butt; stroke-dashoffset: 0; stroke-linejoin: miter; stroke-miterlimit: 4; is-custom-font: none; font-file-url: none; fill: rgb(0,0,0); fill-rule: nonzero; opacity: 1;" vector-effect="non-scaling-stroke" transform=" translate(-16.0504, -15.9975)" d="M 22 9 a 1 1 0 0 0 0 1.42 l 4.6 4.6 H 3.06 a 1 1 0 1 0 0 2 H 26.58 L 22 21.59 A 1 1 0 0 0 22 23 a 1 1 0 0 0 1.41 0 l 6.36 -6.36 a 0.88 0.88 0 0 0 0 -1.27 L 23.42 9 A 1 1 0 0 0 22 9 Z" stroke-linecap="round"/>
</g>
</svg>